<svg xmlns="http://www.w3.org/2000/svg" xmlns:xlink="http://www.w3.org/1999/xlink" xmlns:lucid="lucid" width="1240" height="1410.67"><g transform="translate(-220 300)" lucid:page-tab-id="0_0"><path d="M0-1258.83h1870.87v2581.66H0z" fill="#fff"/><path d="M691.18-129.8l-22.9 30.67-12.03-30.6 21.9-1.35 13.03 1.27zM721.07-129.8l23.16 30.85L756-129.73l-21.66-1.35-13.27 1.28z" fill="#fbbf93"/><path d="M691.18-150.3l-22.9-30.76-12.03 30.8 22.08 1.3 12.85-1.34zM721.07-150.28l23.18-30.78 12 30.8-21.92 1.33-13.26-1.35z" fill="#6b3a19"/><path d="M721.07-150.3l23.16-1.72v-29.04l-23.16 5.96v24.8z" fill="#9d5025"/><path d="M756.24-150.26l-12-1.76v-29.04l12 5.97v24.84z" fill="#f58536"/><path d="M721.07-129.8l23.16 1.8v29.05L721.07-105v-24.8z" fill="#9d5025"/><path d="M756-129.72L744.25-128v29.05l11.77-5.87v-24.9zM691.18-150.3l-22.93-1.72v-29.04l22.93 5.96v24.8z" fill="#f58536"/><path d="M656.25-150.26l12-1.76v-29.04l-12 5.97v24.84z" fill="#9d5025"/><path d="M691.18-129.8l-22.93 1.8v29.05l22.93-6.04v-24.8z" fill="#f58536"/><path d="M656.25-129.75l12 1.75v29.05l-12-5.97v-24.83z" fill="#9d5025"/><path d="M730.1-125.96l-23.88-2.36-24.08 2.3 24.08 46 23.9-45.94z" fill="#fbbf93"/><path d="M730.1-154.06l-23.88 2.37-24.08-2.3 24.08-46 23.9 45.94z" fill="#6b3a19"/><path d="M730.1-154.04l-23.85-3.45V-200l23.86 11.9v34.06z" fill="#f58536"/><path d="M682.14-154.02l24.1-3.5V-200l-24.1 12v33.98z" fill="#9d5025"/><path d="M730.1-125.97l-23.85 3.45v42.5l23.86-11.9v-34.05z" fill="#f58536"/><path d="M682.14-126l24.1 3.5V-80l-24.1-12v-34z" fill="#9d5025"/><use xlink:href="#a" transform="matrix(1,0,0,1,656.25,-80) translate(9.29012345679012 17.77777777777778)"/><use xlink:href="#b" transform="matrix(1,0,0,1,656.25,-80) translate(-4.814814814814817 44.44444444444444)"/><path d="M1017.73-179.18l-7.98 4v70.2l7.98 3.98 19.54-39.1-19.54-39.08z" fill="#8c3123"/><path d="M1059.23-111.1L1017.7-101v-78.18l41.53 10.08 19.63 29.08-19.63 28.92z" fill="#e05243"/><path d="M1059.25-111.1l41.53 10.1 7.16-38.08-7.16-40.1-41.53 10.08v58z" fill="#8c3123"/><path d="M1100.76-179.18l7.98 4v70.2l-7.98 3.98v-78.18z" fill="#e05243"/><path d="M1041.13-127.16l18.12 2.33 14.35-15.14-14.35-15.14-18.12 2.26v25.68z" fill="#8c3123"/><path d="M1077.35-165.26l-18.1 3.3-18.12-3.3 18.1-34.74 18.12 34.74z" fill="#5e1f18"/><path d="M1077.35-114.75l-18.1-3.35-18.12 3.35 18.1 34.74 18.12-34.75z" fill="#f2b0a9"/><path d="M1077.36-165.25l-18.1-4.48V-200l18.1 9.07v25.68z" fill="#e05243"/><path d="M1041.13-165.25l18.1-4.48V-200l-18.1 9.07v25.68z" fill="#8c3123"/><path d="M1059.25-80l18.1-9.08v-25.68l-18.1 4.48V-80z" fill="#e05243"/><path d="M1059.24-80l-18.1-9.08v-25.68l18.1 4.48V-80z" fill="#8c3123"/><path d="M1077.36-127.16l-18.1 2.33v-30.28l18.1 2.26v25.68z" fill="#e05243"/><use xlink:href="#a" transform="matrix(1,0,0,1,1009.75,-80) translate(8.79012345679012 17.77777777777778)"/><use xlink:href="#c" transform="matrix(1,0,0,1,1009.75,-80) translate(35.91975308641975 44.44444444444444)"/><path d="M915 182.36c0 31.8-25.76 57.63-57.5 57.63S800 214.16 800 182.35c0-31.8 25.76-57.63 57.5-57.63s57.5 25.82 57.5 57.63z" fill="#9d5025"/><path d="M915 177.63c0 31.8-25.76 57.63-57.5 57.63S800 209.44 800 177.63c0-31.8 25.76-57.63 57.5-57.63s57.5 25.82 57.5 57.63z" fill="#f58536"/><path d="M874.27 131.08V152H840.7v-20.92h33.57zM900.22 191.64v17.04h-17v-17.04h17zM878.73 191.64v17.04h-17v-17.04h17zM852.55 191.64v17.04h-17v-17.04h17zM831.05 191.64v17.04h-17v-17.04h17z" fill="#fff"/><path d="M821.02 176.9h3.06v16.7h-3.06v-16.7z" fill="#fff"/><path d="M821.02 176.9h24.57v3.05H821v-3.06z" fill="#fff"/><path d="M842.53 176.9h3.06v16.7h-3.07v-16.7zM868.7 176.9h3.06v16.7h-3.06v-16.7z" fill="#fff"/><path d="M868.7 176.9h24.56v3.05H868.7v-3.06z" fill="#fff"/><path d="M890.2 176.9h3.06v16.7h-3.05v-16.7zM831.8 164.95h3.06v13.47h-3.06v-13.47zM855.96 148.92h3.06v16.28h-3.06v-16.28z" fill="#fff"/><path d="M831.8 163.67h50.77v3.06H831.8v-3.06z" fill="#fff"/><path d="M879.5 164.95h3.07v13.47h-3.06v-13.47z" fill="#fff"/><use xlink:href="#d" transform="matrix(1,0,0,1,800,240) translate(36.51234567901235 17.77777777777778)"/><path d="M440 430c0-16.57 13.43-30 30-30h140c16.57 0 30 13.43 30 30v160c0 16.57-13.43 30-30 30H470c-16.57 0-30-13.43-30-30z" fill-opacity="0"/><path d="M455.04 404.1l3.17-1.7 4.72-1.56 4.93-.76L470 400h15.56m15.55 0h31.12m15.56 0h31.1m15.56 0H610l5 .42 4.82 1.22 4.54 2 .6.42m10.95 10.98l1.7 3.17 1.56 4.72.76 4.93.08 2.15v13.33m0 13.34v26.66m0 13.34v26.66m0 13.34v26.66m0 13.34V590l-.42 5-1.22 4.82-2 4.54-.42.6m-10.98 10.95l-3.17 1.7-4.72 1.56-4.93.76-2.15.08h-15.56m-15.55 0h-31.12m-15.56 0h-31.1m-15.56 0H470l-5-.42-4.82-1.22-4.54-2-.6-.42m-10.95-10.98l-1.7-3.17-1.56-4.72-.76-4.93L440 590v-13.33m0-13.34v-26.66m0-13.34v-26.66m0-13.34v-26.66m0-13.34V430l.42-5 1.22-4.82 2-4.54.42-.6" stroke="#f7981f" stroke-width="3" fill="none"/><use xlink:href="#e" transform="matrix(1,0,0,1,440,590) translate(1.018518518518519 11.11111111111111)"/><use xlink:href="#f" transform="matrix(1,0,0,1,440,590) translate(7.191358024691358 11.11111111111111)"/><use xlink:href="#g" transform="matrix(1,0,0,1,440,590) translate(117.56172839506172 11.11111111111111)"/><use xlink:href="#h" transform="matrix(1,0,0,1,440,590) translate(174.29012345679013 11.11111111111111)"/><path d="M480 425.6h120V487H480v-61.4z" fill="#9d5025"/><path d="M480 420h120v61.4H480V420z" fill="#f58536"/><path d="M505.92 423.67h5.65v54.08h-5.65v-54.08zM485.1 423.67h5.64v54.08h-5.65v-54.08zM495.5 423.67h5.66v54.08h-5.66v-54.08zM568.4 423.67h5.66v54.08h-5.66v-54.08zM578.82 423.67h5.65v54.08h-5.65v-54.08zM589.24 423.67h5.65v54.08h-5.66v-54.08z" fill="#fbbf93"/><path d="M486.56 425.13h4.2v52.62h-4.2v-52.62zM496.98 425.13h4.2v52.62h-4.2v-52.62zM507.4 425.13h4.18v52.62h-4.18v-52.62zM569.88 425.13h4.2v52.62h-4.2v-52.62zM580.3 425.13h4.18v52.62h-4.18v-52.62zM590.7 425.13h4.2v52.62h-4.2v-52.62z" fill="#fff"/><path d="M531.78 436.9h16.45c5.67 0 5.67 0 5.67 5.64v16.37c0 5.65 0 5.65-5.67 5.65h-16.45c-5.66 0-5.66 0-5.66-5.64v-16.36c0-5.64 0-5.64 5.66-5.64z" fill="#d16929"/><path d="M548.2 466.24h-16.43c-4.05 0-7.36-3.3-7.36-7.33v-16.37c0-4.03 3.32-7.32 7.37-7.32h16.46c4.05 0 7.36 3.3 7.36 7.33v16.38c0 4.05-3.32 7.34-7.37 7.34h-.03zm-16.43-27.65c-2.18 0-3.96 1.76-3.96 3.93v16.38c0 2.2 1.8 3.95 3.97 3.95h16.46c2.18 0 3.96-1.76 3.96-3.94v-16.37c0-2.17-1.8-3.94-3.97-3.94z" fill="#fff"/><path d="M531.23 438.6c-.93 0-1.7-.77-1.7-1.7v-6.2c0-.93.77-1.7 1.7-1.7.94 0 1.7.77 1.7 1.7v6.2c0 .93-.76 1.7-1.7 1.7zM537.03 438.6c-.94 0-1.7-.77-1.7-1.7v-6.2c0-.93.76-1.7 1.7-1.7s1.7.77 1.7 1.7v6.2c0 .93-.76 1.7-1.7 1.7zM542.8 438.6c-.94 0-1.7-.77-1.7-1.7v-6.2c0-.93.76-1.7 1.7-1.7s1.7.77 1.7 1.7v6.2c0 .93-.76 1.7-1.7 1.7zM548.6 438.6c-.94 0-1.7-.77-1.7-1.7v-6.2c0-.93.76-1.7 1.7-1.7s1.7.77 1.7 1.7v6.2c0 .93-.76 1.7-1.7 1.7zM531.23 472.43c-.93 0-1.7-.75-1.7-1.68v-6.2c0-.93.77-1.7 1.7-1.7.94 0 1.7.77 1.7 1.7v6.2c0 .93-.76 1.68-1.7 1.68zM537.03 472.43c-.94 0-1.7-.75-1.7-1.68v-6.2c0-.93.76-1.7 1.7-1.7s1.7.77 1.7 1.7v6.2c0 .93-.76 1.68-1.7 1.68zM542.8 472.43c-.94 0-1.7-.75-1.7-1.68v-6.2c0-.93.76-1.7 1.7-1.7s1.7.77 1.7 1.7v6.2c0 .93-.76 1.68-1.7 1.68zM548.6 472.43c-.94 0-1.7-.75-1.7-1.68v-6.2c0-.93.76-1.7 1.7-1.7s1.7.77 1.7 1.7v6.2c0 .93-.76 1.68-1.7 1.68zM560.12 443.77h-6.25c-.93 0-1.7-.75-1.7-1.7 0-.92.77-1.68 1.7-1.68h6.23c.93 0 1.7.75 1.7 1.68 0 .94-.77 1.7-1.7 1.7zM560.12 449.5h-6.25c-.93 0-1.7-.74-1.7-1.67 0-.94.77-1.7 1.7-1.7h6.23c.93 0 1.7.76 1.7 1.7 0 .93-.77 1.68-1.7 1.68zM560.12 455.28h-6.25c-.93 0-1.7-.75-1.7-1.7 0-.92.77-1.67 1.7-1.67h6.23c.93 0 1.7.76 1.7 1.7 0 .93-.77 1.68-1.7 1.68zM560.12 461.03h-6.25c-.93 0-1.7-.76-1.7-1.7 0-.92.77-1.68 1.7-1.68h6.23c.93 0 1.7.76 1.7 1.7 0 .92-.77 1.68-1.7 1.68zM526.02 443.77h-6.23c-.94 0-1.7-.75-1.7-1.7 0-.92.76-1.68 1.7-1.68H526c.93 0 1.7.75 1.7 1.68 0 .94-.77 1.7-1.7 1.7zM526.02 449.5h-6.23c-.94 0-1.7-.74-1.7-1.67 0-.94.76-1.7 1.7-1.7H526c.93 0 1.7.76 1.7 1.7 0 .93-.77 1.68-1.7 1.68zM526.02 455.28h-6.23c-.94 0-1.7-.75-1.7-1.7 0-.92.76-1.67 1.7-1.67H526c.93 0 1.7.76 1.7 1.7 0 .93-.77 1.68-1.7 1.68zM526.02 461.03h-6.23c-.94 0-1.7-.76-1.7-1.7 0-.92.76-1.68 1.7-1.68H526c.93 0 1.7.76 1.7 1.7 0 .92-.77 1.68-1.7 1.68z" fill="#fff"/><path d="M534.38 445.13h11.22v11.17h-11.22v-11.18z" fill="#fbbf93"/><path d="M545.62 457.43H534.3c-.64 0-1.14-.5-1.14-1.13v-11.27c0-.62.5-1.12 1.13-1.12h11.32c.62 0 1.12.5 1.12 1.13v11.27c0 .63-.5 1.13-1.12 1.13zm-10.1-2.26h9.05v-9h-9.1z" fill="#fff"/><use xlink:href="#i" transform="matrix(1,0,0,1,480,487) translate(9.941358024691368 13.11111111111111)"/><use xlink:href="#j" transform="matrix(1,0,0,1,480,487) translate(46.19444444444445 13.11111111111111)"/><path d="M760 430c0-16.57 13.43-30 30-30h140c16.57 0 30 13.43 30 30v160c0 16.57-13.43 30-30 30H790c-16.57 0-30-13.43-30-30z" fill-opacity="0"/><path d="M775.04 404.1l3.17-1.7 4.72-1.56 4.93-.76L790 400h15.56m15.55 0h31.12m15.56 0h31.1m15.56 0H930l5 .42 4.82 1.22 4.54 2 .6.42m10.95 10.98l1.7 3.17 1.56 4.72.76 4.93.08 2.15v13.33m0 13.34v26.66m0 13.34v26.66m0 13.34v26.66m0 13.34V590l-.42 5-1.22 4.82-2 4.54-.42.6m-10.98 10.95l-3.17 1.7-4.72 1.56-4.93.76-2.15.08h-15.56m-15.55 0h-31.12m-15.56 0h-31.1m-15.56 0H790l-5-.42-4.82-1.22-4.54-2-.6-.42m-10.95-10.98l-1.7-3.17-1.56-4.72-.76-4.93L760 590v-13.33m0-13.34v-26.66m0-13.34v-26.66m0-13.34v-26.66m0-13.34V430l.42-5 1.22-4.82 2-4.54.42-.6" stroke="#f7981f" stroke-width="3" fill="none"/><use xlink:href="#e" transform="matrix(1,0,0,1,760,590) translate(1.018518518518519 11.11111111111111)"/><use xlink:href="#f" transform="matrix(1,0,0,1,760,590) translate(7.191358024691358 11.11111111111111)"/><use xlink:href="#g" transform="matrix(1,0,0,1,760,590) translate(117.56172839506172 11.11111111111111)"/><use xlink:href="#k" transform="matrix(1,0,0,1,760,590) translate(174.29012345679013 11.11111111111111)"/><path d="M800 425.6h120V487H800v-61.4z" fill="#9d5025"/><path d="M800 420h120v61.4H800V420z" fill="#f58536"/><path d="M825.92 423.67h5.65v54.08h-5.65v-54.08zM805.1 423.67h5.64v54.08h-5.65v-54.08zM815.5 423.67h5.66v54.08h-5.66v-54.08zM888.4 423.67h5.66v54.08h-5.66v-54.08zM898.82 423.67h5.65v54.08h-5.65v-54.08zM909.24 423.67h5.65v54.08h-5.66v-54.08z" fill="#fbbf93"/><path d="M806.56 425.13h4.2v52.62h-4.2v-52.62zM816.98 425.13h4.2v52.62h-4.2v-52.62zM827.4 425.13h4.18v52.62h-4.18v-52.62zM889.88 425.13h4.2v52.62h-4.2v-52.62zM900.3 425.13h4.18v52.62h-4.18v-52.62zM910.7 425.13h4.2v52.62h-4.2v-52.62z" fill="#fff"/><path d="M851.78 436.9h16.45c5.67 0 5.67 0 5.67 5.64v16.37c0 5.65 0 5.65-5.67 5.65h-16.45c-5.66 0-5.66 0-5.66-5.64v-16.36c0-5.64 0-5.64 5.66-5.64z" fill="#d16929"/><path d="M868.2 466.24h-16.43c-4.05 0-7.36-3.3-7.36-7.33v-16.37c0-4.03 3.32-7.32 7.37-7.32h16.46c4.05 0 7.36 3.3 7.36 7.33v16.38c0 4.05-3.32 7.34-7.37 7.34h-.03zm-16.43-27.65c-2.18 0-3.96 1.76-3.96 3.93v16.38c0 2.2 1.8 3.95 3.97 3.95h16.46c2.18 0 3.96-1.76 3.96-3.94v-16.37c0-2.17-1.8-3.94-3.97-3.94z" fill="#fff"/><path d="M851.23 438.6c-.93 0-1.7-.77-1.7-1.7v-6.2c0-.93.77-1.7 1.7-1.7.94 0 1.7.77 1.7 1.7v6.2c0 .93-.76 1.7-1.7 1.7zM857.03 438.6c-.94 0-1.7-.77-1.7-1.7v-6.2c0-.93.76-1.7 1.7-1.7s1.7.77 1.7 1.7v6.2c0 .93-.76 1.7-1.7 1.7zM862.8 438.6c-.94 0-1.7-.77-1.7-1.7v-6.2c0-.93.76-1.7 1.7-1.7s1.7.77 1.7 1.7v6.2c0 .93-.76 1.7-1.7 1.7zM868.6 438.6c-.94 0-1.7-.77-1.7-1.7v-6.2c0-.93.76-1.7 1.7-1.7s1.7.77 1.7 1.7v6.2c0 .93-.76 1.7-1.7 1.7zM851.23 472.43c-.93 0-1.7-.75-1.7-1.68v-6.2c0-.93.77-1.7 1.7-1.7.94 0 1.7.77 1.7 1.7v6.2c0 .93-.76 1.68-1.7 1.68zM857.03 472.43c-.94 0-1.7-.75-1.7-1.68v-6.2c0-.93.76-1.7 1.7-1.7s1.7.77 1.7 1.7v6.2c0 .93-.76 1.68-1.7 1.68zM862.8 472.43c-.94 0-1.7-.75-1.7-1.68v-6.2c0-.93.76-1.7 1.7-1.7s1.7.77 1.7 1.7v6.2c0 .93-.76 1.68-1.7 1.68zM868.6 472.43c-.94 0-1.7-.75-1.7-1.68v-6.2c0-.93.76-1.7 1.7-1.7s1.7.77 1.7 1.7v6.2c0 .93-.76 1.68-1.7 1.68zM880.12 443.77h-6.25c-.93 0-1.7-.75-1.7-1.7 0-.92.77-1.68 1.7-1.68h6.23c.93 0 1.7.75 1.7 1.68 0 .94-.77 1.7-1.7 1.7zM880.12 449.5h-6.25c-.93 0-1.7-.74-1.7-1.67 0-.94.77-1.7 1.7-1.7h6.23c.93 0 1.7.76 1.7 1.7 0 .93-.77 1.68-1.7 1.68zM880.12 455.28h-6.25c-.93 0-1.7-.75-1.7-1.7 0-.92.77-1.67 1.7-1.67h6.23c.93 0 1.7.76 1.7 1.7 0 .93-.77 1.68-1.7 1.68zM880.12 461.03h-6.25c-.93 0-1.7-.76-1.7-1.7 0-.92.77-1.68 1.7-1.68h6.23c.93 0 1.7.76 1.7 1.7 0 .92-.77 1.68-1.7 1.68zM846.02 443.77h-6.23c-.94 0-1.7-.75-1.7-1.7 0-.92.76-1.68 1.7-1.68H846c.93 0 1.7.75 1.7 1.68 0 .94-.77 1.7-1.7 1.7zM846.02 449.5h-6.23c-.94 0-1.7-.74-1.7-1.67 0-.94.76-1.7 1.7-1.7H846c.93 0 1.7.76 1.7 1.7 0 .93-.77 1.68-1.7 1.68zM846.02 455.28h-6.23c-.94 0-1.7-.75-1.7-1.7 0-.92.76-1.67 1.7-1.67H846c.93 0 1.7.76 1.7 1.7 0 .93-.77 1.68-1.7 1.68zM846.02 461.03h-6.23c-.94 0-1.7-.76-1.7-1.7 0-.92.76-1.68 1.7-1.68H846c.93 0 1.7.76 1.7 1.7 0 .92-.77 1.68-1.7 1.68z" fill="#fff"/><path d="M854.38 445.13h11.22v11.17h-11.22v-11.18z" fill="#fbbf93"/><path d="M865.62 457.43H854.3c-.64 0-1.14-.5-1.14-1.13v-11.27c0-.62.5-1.12 1.13-1.12h11.32c.62 0 1.12.5 1.12 1.13v11.27c0 .63-.5 1.13-1.12 1.13zm-10.1-2.26h9.05v-9h-9.1z" fill="#fff"/><use xlink:href="#i" transform="matrix(1,0,0,1,800,487) translate(9.941358024691368 13.11111111111111)"/><use xlink:href="#j" transform="matrix(1,0,0,1,800,487) translate(46.19444444444445 13.11111111111111)"/><path d="M1080 430c0-16.57 13.43-30 30-30h140c16.57 0 30 13.43 30 30v160c0 16.57-13.43 30-30 30h-140c-16.57 0-30-13.43-30-30z" fill-opacity="0"/><path d="M1095.04 404.1l3.17-1.7 4.72-1.56 4.93-.76 2.15-.08h15.56m15.55 0h31.12m15.56 0h31.1m15.56 0H1250l5 .42 4.82 1.22 4.54 2 .6.42m10.95 10.98l1.7 3.17 1.56 4.72.76 4.93.08 2.15v13.33m0 13.34v26.66m0 13.34v26.66m0 13.34v26.66m0 13.34V590l-.42 5-1.22 4.82-2 4.54-.42.6m-10.98 10.95l-3.17 1.7-4.72 1.56-4.93.76-2.15.08h-15.56m-15.55 0h-31.12m-15.56 0h-31.1m-15.56 0H1110l-5-.42-4.82-1.22-4.54-2-.6-.42m-10.95-10.98l-1.7-3.17-1.56-4.72-.76-4.93-.08-2.15v-13.33m0-13.34v-26.66m0-13.34v-26.66m0-13.34v-26.66m0-13.34V430l.42-5 1.22-4.82 2-4.54.42-.6" stroke="#f7981f" stroke-width="3" fill="none"/><use xlink:href="#e" transform="matrix(1,0,0,1,1080,590) translate(1.018518518518519 11.11111111111111)"/><use xlink:href="#f" transform="matrix(1,0,0,1,1080,590) translate(7.191358024691358 11.11111111111111)"/><use xlink:href="#g" transform="matrix(1,0,0,1,1080,590) translate(117.56172839506172 11.11111111111111)"/><use xlink:href="#l" transform="matrix(1,0,0,1,1080,590) translate(174.29012345679013 11.11111111111111)"/><path d="M1120 425.6h120V487h-120v-61.4z" fill="#9d5025"/><path d="M1120 420h120v61.4h-120V420z" fill="#f58536"/><path d="M1145.92 423.67h5.65v54.08h-5.65v-54.08zM1125.1 423.67h5.64v54.08h-5.65v-54.08zM1135.5 423.67h5.66v54.08h-5.66v-54.08zM1208.4 423.67h5.66v54.08h-5.66v-54.08zM1218.82 423.67h5.65v54.08h-5.65v-54.08zM1229.24 423.67h5.65v54.08h-5.66v-54.08z" fill="#fbbf93"/><path d="M1126.56 425.13h4.2v52.62h-4.2v-52.62zM1136.98 425.13h4.2v52.62h-4.2v-52.62zM1147.4 425.13h4.18v52.62h-4.18v-52.62zM1209.88 425.13h4.2v52.62h-4.2v-52.62zM1220.3 425.13h4.18v52.62h-4.18v-52.62zM1230.7 425.13h4.2v52.62h-4.2v-52.62z" fill="#fff"/><path d="M1171.78 436.9h16.45c5.67 0 5.67 0 5.67 5.64v16.37c0 5.65 0 5.65-5.67 5.65h-16.45c-5.66 0-5.66 0-5.66-5.64v-16.36c0-5.64 0-5.64 5.66-5.64z" fill="#d16929"/><path d="M1188.2 466.24h-16.43c-4.05 0-7.36-3.3-7.36-7.33v-16.37c0-4.03 3.32-7.32 7.37-7.32h16.46c4.05 0 7.36 3.3 7.36 7.33v16.38c0 4.05-3.32 7.34-7.37 7.34h-.03zm-16.43-27.65c-2.18 0-3.96 1.76-3.96 3.93v16.38c0 2.2 1.8 3.95 3.97 3.95h16.46c2.18 0 3.96-1.76 3.96-3.94v-16.37c0-2.17-1.8-3.94-3.97-3.94z" fill="#fff"/><path d="M1171.23 438.6c-.93 0-1.7-.77-1.7-1.7v-6.2c0-.93.77-1.7 1.7-1.7.94 0 1.7.77 1.7 1.7v6.2c0 .93-.76 1.7-1.7 1.7zM1177.03 438.6c-.94 0-1.7-.77-1.7-1.7v-6.2c0-.93.76-1.7 1.7-1.7s1.7.77 1.7 1.7v6.2c0 .93-.76 1.7-1.7 1.7zM1182.8 438.6c-.94 0-1.7-.77-1.7-1.7v-6.2c0-.93.76-1.7 1.7-1.7s1.7.77 1.7 1.7v6.2c0 .93-.76 1.7-1.7 1.7zM1188.6 438.6c-.94 0-1.7-.77-1.7-1.7v-6.2c0-.93.76-1.7 1.7-1.7s1.7.77 1.7 1.7v6.2c0 .93-.76 1.7-1.7 1.7zM1171.23 472.43c-.93 0-1.7-.75-1.7-1.68v-6.2c0-.93.77-1.7 1.7-1.7.94 0 1.7.77 1.7 1.7v6.2c0 .93-.76 1.68-1.7 1.68zM1177.03 472.43c-.94 0-1.7-.75-1.7-1.68v-6.2c0-.93.76-1.7 1.7-1.7s1.7.77 1.7 1.7v6.2c0 .93-.76 1.68-1.7 1.68zM1182.8 472.43c-.94 0-1.7-.75-1.7-1.68v-6.2c0-.93.76-1.7 1.7-1.7s1.7.77 1.7 1.7v6.2c0 .93-.76 1.68-1.7 1.68zM1188.6 472.43c-.94 0-1.7-.75-1.7-1.68v-6.2c0-.93.76-1.7 1.7-1.7s1.7.77 1.7 1.7v6.2c0 .93-.76 1.68-1.7 1.68zM1200.12 443.77h-6.25c-.93 0-1.7-.75-1.7-1.7 0-.92.77-1.68 1.7-1.68h6.23c.93 0 1.7.75 1.7 1.68 0 .94-.77 1.7-1.7 1.7zM1200.12 449.5h-6.25c-.93 0-1.7-.74-1.7-1.67 0-.94.77-1.7 1.7-1.7h6.23c.93 0 1.7.76 1.7 1.7 0 .93-.77 1.68-1.7 1.68zM1200.12 455.28h-6.25c-.93 0-1.7-.75-1.7-1.7 0-.92.77-1.67 1.7-1.67h6.23c.93 0 1.7.76 1.7 1.7 0 .93-.77 1.68-1.7 1.68zM1200.12 461.03h-6.25c-.93 0-1.7-.76-1.7-1.7 0-.92.77-1.68 1.7-1.68h6.23c.93 0 1.7.76 1.7 1.7 0 .92-.77 1.68-1.7 1.68zM1166.02 443.77h-6.23c-.94 0-1.7-.75-1.7-1.7 0-.92.76-1.68 1.7-1.68h6.22c.93 0 1.7.75 1.7 1.68 0 .94-.77 1.7-1.7 1.7zM1166.02 449.5h-6.23c-.94 0-1.7-.74-1.7-1.67 0-.94.76-1.7 1.7-1.7h6.22c.93 0 1.7.76 1.7 1.7 0 .93-.77 1.68-1.7 1.68zM1166.02 455.28h-6.23c-.94 0-1.7-.75-1.7-1.7 0-.92.76-1.67 1.7-1.67h6.22c.93 0 1.7.76 1.7 1.7 0 .93-.77 1.68-1.7 1.68zM1166.02 461.03h-6.23c-.94 0-1.7-.76-1.7-1.7 0-.92.76-1.68 1.7-1.68h6.22c.93 0 1.7.76 1.7 1.7 0 .92-.77 1.68-1.7 1.68z" fill="#fff"/><path d="M1174.38 445.13h11.22v11.17h-11.22v-11.18z" fill="#fbbf93"/><path d="M1185.62 457.43h-11.33c-.64 0-1.14-.5-1.14-1.13v-11.27c0-.62.5-1.12 1.13-1.12h11.32c.62 0 1.12.5 1.12 1.13v11.27c0 .63-.5 1.13-1.12 1.13zm-10.1-2.26h9.05v-9h-9.1z" fill="#fff"/><use xlink:href="#i" transform="matrix(1,0,0,1,1120,487) translate(9.941358024691368 13.11111111111111)"/><use xlink:href="#j" transform="matrix(1,0,0,1,1120,487) translate(46.19444444444445 13.11111111111111)"/><path d="M300 309.5c0-3.3 2.7-6 6-6h1088c3.3 0 6 2.7 6 6V814c0 3.3-2.7 6-6 6H306c-3.3 0-6-2.7-6-6z" fill="#fff" fill-opacity="0"/><path d="M324.13 303.5h12.1m12.08 0h12.1m12.1 0h12.08m12.1 0h12.08m12.08 0h12.1m12.08 0h12.1m12.08 0h12.1m12.08 0h12.1m12.08 0h12.08m12.1 0h12.08m12.1 0H578m12.1 0h12.08m12.1 0h12.08m12.08 0h12.1m12.08 0h12.1m12.08 0h12.1m12.08 0h12.1m12.08 0h12.08m12.1 0h12.08m12.1 0h12.08m12.1 0h12.08m12.1 0h12.08m12.08 0h12.1m12.08 0h12.1m12.08 0h12.1m12.08 0h12.1m12.08 0h12.08m12.1 0H989m12.1 0h12.08m12.1 0h12.08m12.1 0h12.08m12.08 0h12.1m12.08 0h12.1m12.08 0h12.1m12.08 0h12.1m12.08 0h12.08m12.1 0h12.08m12.1 0h12.08m12.1 0h12.08m12.1 0h12.08m12.08 0h12.1m12.08 0h12.1m12.08 0h12.1m12.08 0h12.1m12.08 0h6.04l3.03.82 2.15 2.15.82 3.03v6m0 12.02v12m0 12.02v12m0 12.03v12m0 12.02v12m0 12v12.02m0 12.02v12m0 12.02v12m0 12.02v12.02m0 12v12.02m0 12v12.02m0 12.02v12m0 12.02v12m0 12.02v12.02m0 12v12.02m0 12v12.02m0 12v12.03m0 12v12m0 12.02v12m0 12.03v12m0 12.02v12m0 12.02v6l-.82 3.03-2.15 2.15-3.03.82h-6.04m-12.1 0h-12.08m-12.1 0h-12.08m-12.1 0h-12.08m-12.1 0h-12.08m-12.08 0h-12.1m-12.08 0h-12.1m-12.08 0h-12.1m-12.08 0h-12.1m-12.08 0h-12.08m-12.1 0h-12.08m-12.1 0H1122m-12.1 0h-12.08m-12.1 0h-12.08m-12.08 0h-12.1m-12.08 0h-12.1m-12.08 0h-12.1m-12.08 0h-12.1m-12.08 0h-12.08m-12.1 0H928.6m-12.1 0H904.4m-12.1 0h-12.08m-12.1 0h-12.08m-12.08 0h-12.1m-12.08 0h-12.1m-12.08 0h-12.1m-12.08 0h-12.1m-12.08 0h-12.08m-12.1 0H711m-12.1 0H686.8m-12.1 0h-12.08m-12.1 0h-12.08m-12.08 0h-12.1m-12.08 0h-12.1M578 820h-12.1m-12.08 0h-12.1m-12.08 0h-12.08m-12.1 0H493.4m-12.1 0H469.2m-12.1 0h-12.08m-12.1 0h-12.08m-12.08 0h-12.1m-12.08 0h-12.1m-12.08 0h-12.1m-12.08 0h-12.1m-12.08 0H306l-3.03-.82-2.15-2.15L300 814v-6m0-12.02v-12m0-12.02v-12m0-12.03v-12m0-12.02v-12m0-12v-12.02m0-12.02v-12m0-12.02v-12m0-12.02V615.8m0-12v-12.02m0-12v-12.02m0-12.02v-12m0-12.02v-12m0-12.02v-12.02m0-12v-12.02m0-12v-12.02m0-12V423.6m0-12v-12m0-12.02v-12m0-12.03v-12m0-12.02v-12m0-12.02v-6l.82-3.03 2.15-2.15 3.03-.82h6.04" stroke="#d86613" stroke-width="3" fill="none"/><path d="M300 303.5h56v56h-56v-56z" stroke="#fff" stroke-opacity="0" stroke-width="2" fill="#d86613"/><path d="M327.83 351.62c-.13 0-.27-.04-.37-.13l-17-9.8c-.27-.15-.4-.4-.4-.67v-19.85c0-.28.13-.53.4-.7l15.64-9c.3-.25.78-.13 1.02.2.1.16.14.32.14.48v8.62c0 .24-.14.48-.38.64l-7.83 4.47v10.42l8.82 5.07 7.7-4.48c.23-.16.5-.16.74 0l7.4 4.27c.28.1.4.35.4.67 0 .28-.12.53-.4.65l-15.5 8.97c-.1.08-.23.12-.37.12zM311.6 340.5l16.64 9.63 14.3-8.3-5.95-3.42-7.95 4.6c-.27.12-.54.12-.82 0l-9.9-5.72c-.28-.16-.4-.4-.4-.68v-11.1c0-.3.12-.54.4-.7l7.8-4.47v-6.84l-14.17 8.2z" stroke="#fff" stroke-opacity="0" stroke-width="2" fill="#fff"/><path d="M345.13 340.1c-.15 0-.27-.04-.4-.13l-7.4-4.27c-.26-.14-.4-.37-.4-.7V326l-7.8-4.5c-.27-.14-.4-.4-.4-.68v-8.6c0-.3.13-.55.4-.66.2-.15.5-.15.73 0l15.7 9c.24.14.38.4.38.7v18.02c0 .3-.14.54-.4.68-.13.1-.25.15-.4.15zm-6.68-5.57l5.98 3.44V321.7l-14.2-8.18v6.8l7.84 4.55c.26.14.42.37.4.68z" stroke="#fff" stroke-opacity="0" stroke-width="2" fill="#fff"/><use xlink:href="#m" transform="matrix(1,0,0,1,371,323.5) translate(0 14.4)"/><use xlink:href="#n" transform="matrix(1,0,0,1,371,323.5) translate(41.95 14.4)"/><path d="M820 680h80v80h-80v-80z" stroke="#fff" stroke-opacity="0" stroke-width="2" fill="#d86613"/><path d="M846.44 718.83c.1.1.15.18.27.24.16.15.3.27.5.4l.1.07.54.27.33.16h.22l.28.12c.5.18 1.05.4 1.67.6l1 .26.5.15c2.8.68 5.25.98 8.15.95 4.4.1 8.12-.63 12.16-2.33 1.73-.8 2.74-2.38 2.77-4.28v-15.3c0-.67-.36-1.23-.95-1.53l-13.26-6.15c-.45-.24-.96-.24-1.4 0L846 698.6c-.6.3-.95.87-.95 1.53v15.36c0 1.2.38 2.2 1.16 3.12.06.1.12.15.2.2zm5.44.15l-.9-.27c-.57-.17-1.05-.35-1.5-.5l-.38-.17-.36-.15-.36-.18-.27-.2-.1-.16-.1-.1-.1-.08c-.4-.5-.6-1.04-.6-1.7v-14.05l11.72 5.52v13.04c-2.32-.03-4.3-.3-6.57-.83zm19.4-1.13c-3.4 1.46-6.53 2.1-10.23 2.14v-12.87l11.73-5.36v13.67c.03 1.07-.53 1.96-1.5 2.4zM860 694.45l11.8 5.5-11.62 5.2-.06-.05-11.47-5.33z" stroke="#fff" stroke-opacity="0" stroke-width="2" fill="#fff"/><path d="M878.4 709.53l-.54 2.04c4.77 1.4 7.77 3.42 7.77 5.23 0 3.53-10.54 7.47-25.63 7.47-15.1 0-25.63-3.94-25.63-7.47 0-1.8 3-3.82 7.77-5.23l-.55-2.04c-6 1.75-9.33 4.35-9.33 7.27 0 6.23 14.3 9.6 27.73 9.6 13.42 0 27.73-3.37 27.73-9.6 0-2.92-3.32-5.5-9.32-7.27zM878.36 729.76l-4.96-2.15c-.4-.17-.8-.17-1.2 0l-5.07 2.2c-.47.24-.72.66-.72 1.17v5.5l-4.74-2.06c-.4-.2-.8-.2-1.2 0l-4.78 2.07v-5.52c0-.53-.3-1-.76-1.2l-5-2.14c-.36-.17-.8-.17-1.2 0l-5.06 2.2c-.47.24-.73.66-.73 1.17v6.5c0 .54.3.98.8 1.2l4.96 2.13h.1c.18.08.33.12.54.12.2 0 .37-.02.5-.12l4.83-2.07v5.5c0 .53.3.97.76 1.2l4.96 2.14h.07c.18.08.36.12.58.12.18 0 .36-.05.54-.13l5.06-2.18c.47-.26.72-.68.76-1.2v-5.47l4.7 2.07h.15c.2.08.37.12.58.14.2-.02.33-.06.48-.14l5.1-2.13c.47-.22.73-.66.73-1.17v-6.55c0-.53-.3-1-.8-1.2zm-5.58-.1l2.9 1.25-2.72 1.12-2.82-1.2zm-11.73 6.8l2.9 1.24-2.72 1.07-2.83-1.17zm-11.74-6.8l2.9 1.25-2.7 1.08-2.84-1.17zm-4.27 2.78l3.23 1.36v4.5l-3.23-1.4zm5.37 5.83V734l3.18-1.3v4.25zm6.37.97l3.22 1.37v4.46l-3.23-1.37zm5.33 5.84v-4.28l3.22-1.32v4.27zm6.4-12.64l3.2 1.36v4.5l-3.2-1.4zm5.33 5.85V734l3.23-1.33v4.25z" stroke="#fff" stroke-opacity="0" stroke-width="2" fill="#fff"/><use xlink:href="#o" transform="matrix(1,0,0,1,790,769) translate(3.827160493827165 17.77777777777778)"/><use xlink:href="#p" transform="matrix(1,0,0,1,790,769) translate(59.75308641975308 17.77777777777778)"/><path d="M724.75-140h266.5" stroke="#5e5e5e" stroke-width="2" fill="none"/><path d="M709.48-140l14.27-4.64v9.27zM1006.5-140l-14.25 4.63v-9.27z" stroke="#5e5e5e" stroke-width="2" fill="#5e5e5e"/><path d="M546.25-234c0-3.3 2.7-6 6-6h610.5c3.3 0 6 2.7 6 6V-6c0 3.3-2.7 6-6 6h-610.5c-3.3 0-6-2.7-6-6z" fill="#fff" fill-opacity="0"/><path d="M570.56-240h12.2m12.22 0h12.2m12.22 0h12.2m12.22 0h12.2m12.22 0h12.2m12.22 0h12.2m12.22 0h12.2m12.22 0h12.2m12.22 0h12.2m12.22 0h12.2m12.22 0h12.2m12.22 0h12.2m12.22 0h12.2m12.22 0h12.2m12.22 0h12.2m12.22 0h12.2m12.22 0h12.2m12.22 0h12.2m12.22 0h12.2m12.22 0h12.2m12.22 0h12.2m12.22 0h12.2m12.22 0h12.2m12.22 0h12.2m12.22 0h6.1l3.04.82 2.15 2.15.82 3.03v5.7m0 11.4v11.4m0 11.4v11.4m0 11.4v11.4m0 11.4v11.4m0 11.4v11.4m0 11.4v11.4m0 11.4v11.4m0 11.4v11.4m0 11.4v11.4m0 11.4V-6l-.82 3.03-2.15 2.15-3.03.82h-6.1m-12.2 0h-12.22m-12.2 0h-12.22m-12.2 0h-12.2m-12.22 0h-12.2m-12.22 0h-12.2m-12.22 0h-12.2M997.9 0h-12.2M973.5 0h-12.2m-12.22 0h-12.2m-12.22 0h-12.2m-12.22 0h-12.2M875.8 0h-12.2M851.4 0h-12.2m-12.22 0h-12.2m-12.22 0h-12.2m-12.22 0h-12.2M753.7 0h-12.2M729.3 0h-12.2m-12.22 0h-12.2m-12.22 0h-12.2m-12.22 0h-12.2M631.6 0h-12.2M607.2 0H595m-12.22 0h-12.2m-12.22 0h-6.1l-3.04-.82-2.15-2.15-.82-3.03v-5.7m0-11.4v-11.4m0-11.4v-11.4m0-11.4v-11.4m0-11.4v-11.4m0-11.4v-11.4m0-11.4v-11.4m0-11.4v-11.4m0-11.4v-11.4m0-11.4v-11.4m0-11.4v-5.7l.82-3.03 2.15-2.15 3.03-.82h6.1" stroke="#5a6c86" stroke-width="3" fill="none"/><path d="M857.5 2.5v99" stroke="#5e5e5e" stroke-width="2" fill="none"/><path d="M858.5 2.53h-2V1.5h2z" fill="#5e5e5e"/><path d="M857.5 116.76l-4.64-14.26h9.28z" stroke="#5e5e5e" stroke-width="2" fill="#5e5e5e"/><path d="M305.27-211.6l-15.73-.98-49.54 3.2 13.97 31.63 51.3-33.86z" fill="#fbbf93"/><path d="M253.78-262.13l-13.78 7v35.12h13.78l19.5-17.74-19.5-24.4z" fill="#9d5025"/><path d="M305.27-211.62l-51.3 4.3v29.57l51.3-14v-19.87zM278.78-220h-25v-42.13l25 6.78V-220z" fill="#f58536"/><path d="M314.72-220.05l17.94.04v-34.56l-17.94 2.97v31.55z" fill="#9d5025"/><path d="M279.57-248.1l16.14-16.25L332.66-243l-17.94 2.53-35.13-7.62z" fill="#6b3a19"/><path d="M263.06-220h26.38l13.83-27.72L289.44-280l-26.38 13.2v46.8z" fill="#9d5025"/><path d="M289.44-280v60h14.82v-31.56l28.4 8.58V-220h6.33v-35.16L289.43-280z" fill="#f58536"/><path d="M240-209.4l13.98 2.06v29.6l-13.98-7v-24.65z" fill="#9d5025"/><path d="M339-209.52L315.14-211l-52.1 5.05L289.42-160l49.6-49.52z" fill="#fbbf93"/><path d="M339-209.52l-49.56 7.42v42.1L339-184.88v-24.65z" fill="#f58536"/><path d="M263.06-205.95l26.38 3.86v42.1l-26.38-13.2v-32.75z" fill="#9d5025"/><use xlink:href="#a" transform="matrix(1,0,0,1,240,-160) translate(8.79012345679012 17.77777777777778)"/><use xlink:href="#q" transform="matrix(1,0,0,1,240,-160) translate(26.69135802469136 44.44444444444444)"/><path d="M240-274c0-3.3 2.7-6 6-6h1188c3.3 0 6 2.7 6 6V857.5c0 3.3-2.7 6-6 6H246c-3.3 0-6-2.7-6-6z" fill="#fff" fill-opacity="0"/><path d="M263.82-280h11.88m11.88 0h11.88m11.88 0h11.88m11.88 0h11.88m11.88 0h11.88m11.88 0h11.88m11.88 0h11.88m11.88 0h11.88m11.88 0h11.88m11.88 0h11.88m11.88 0h11.88m11.88 0h11.88m11.88 0h11.88m11.88 0h11.88m11.88 0h11.88m11.88 0h11.88m11.88 0h11.88m11.88 0h11.88m11.88 0h11.88m11.88 0h11.88m11.88 0h11.88m11.88 0h11.88m11.88 0h11.88m11.88 0h11.88m11.88 0h11.88m11.88 0h11.88m11.88 0h11.88m11.88 0h11.88m11.88 0h11.88m11.88 0h11.88m11.88 0h11.88m11.88 0h11.88m11.88 0h11.88m11.88 0h11.88m11.88 0h11.88m11.88 0h11.88m11.88 0h11.88m11.88 0h11.88m11.88 0h11.88m11.88 0h11.88m11.88 0h11.88m11.88 0h11.88m11.88 0h11.88m11.88 0h11.88m11.88 0h11.88m11.88 0h11.88m11.88 0h11.88m11.88 0h11.88m11.88 0h11.88m11.88 0h5.94l3.03.82 2.15 2.15.82 3.03v6.02m0 12.04v12.03m0 12.03v12.04m0 12.03v12.04m0 12.04v12.04m0 12.03v12.04m0 12.03v12.04m0 12.03v12.04m0 12.04v12.03m0 12.05v12.04m0 12.03v12.03m0 12.04v12.04m0 12.03V20.9m0 12.05V45m0 12.02v12.04m0 12.04v12.04m0 12.03v12.04m0 12.05v12.03m0 12.04v12.04m0 12.04v12.03m0 12.04v12.04m0 12.05v12.03m0 12.04v12.04m0 12.03v12.03m0 12.04v12.04m0 12.04v12.04m0 12.04v12.03m0 12.04v12.03m0 12.04v12.03m0 12.04v12.04m0 12.04v12.03m0 12.04v12.03m0 12.03v12.04m0 12.04v12.04m0 12.03v12.05m0 12.04v12.02m0 12.04v12.04m0 12.04v12.03m0 12.04v12.05m0 12.04v12.02m0 12.04V695m0 12.03v12.04m0 12.04v12.05m0 12.03v12.04m0 12.04v12.04m0 12.03v12.04m0 12.04v12.04m0 12.04v6.02l-.82 3.03-2.15 2.15-3.03.82h-5.94m-11.88 0h-11.88m-11.88 0h-11.88m-11.88 0h-11.88m-11.88 0h-11.88m-11.88 0h-11.88m-11.88 0h-11.88m-11.88 0h-11.88m-11.88 0h-11.88m-11.88 0h-11.88m-11.88 0h-11.88m-11.88 0h-11.88m-11.88 0h-11.88m-11.88 0h-11.88m-11.88 0h-11.88m-11.88 0h-11.88m-11.88 0h-11.88m-11.88 0h-11.88m-11.88 0h-11.88m-11.88 0h-11.88m-11.88 0h-11.88m-11.88 0H929.1m-11.88 0h-11.88m-11.88 0h-11.88m-11.88 0h-11.88m-11.88 0h-11.88m-11.88 0H810.3m-11.88 0h-11.88m-11.88 0h-11.88m-11.88 0h-11.88m-11.88 0h-11.88m-11.88 0H691.5m-11.88 0h-11.88m-11.88 0h-11.88m-11.88 0h-11.88m-11.88 0h-11.88m-11.88 0H572.7m-11.88 0h-11.88m-11.88 0h-11.88m-11.88 0h-11.88m-11.88 0h-11.88m-11.88 0H453.9m-11.88 0h-11.88m-11.88 0h-11.88m-11.88 0h-11.88m-11.88 0h-11.88m-11.88 0H335.1m-11.88 0h-11.88m-11.88 0h-11.88m-11.88 0h-11.88m-11.88 0H246l-3.03-.82-2.15-2.15-.82-3.03v-6.02m0-12.04V827.4m0-12.03v-12.04m0-12.03v-12.04m0-12.04v-12.04m0-12.03V731.1m0-12.03v-12.04m0-12.03v-12.04m0-12.04V658.9m0-12.05V634.8m0-12.03v-12.03m0-12.04v-12.04m0-12.03V562.6m0-12.05V538.5m0-12.02v-12.04m0-12.04v-12.04m0-12.03V466.3m0-12.05v-12.03m0-12.04v-12.04m0-12.04v-12.03m0-12.04V370m0-12.05v-12.03m0-12.04v-12.04m0-12.03v-12.03m0-12.04V273.7m0-12.04v-12.04m0-12.04v-12.03m0-12.04v-12.03m0-12.04V177.4m0-12.04v-12.04m0-12.04v-12.03m0-12.04v-12.03m0-12.03V81.1m0-12.04V57.02M240 45V32.94m0-12.04V8.9m0-12.04V-15.2m0-12.04v-12.03m0-12.04v-12.05m0-12.04V-87.4m0-12.04v-12.04m0-12.03v-12.04m0-12.04v-12.05m0-12.03v-12.04m0-12.04v-12.04m0-12.03v-12.04m0-12.04v-12.04m0-12.04V-274l.82-3.03 2.15-2.15L246-280h5.94" stroke="#5a6c86" stroke-width="3" fill="none"/><path d="M319.44 104.66h74.12c10.74 0 19.44 8.68 19.44 19.4v32.6c-3.84-2.02-12.2-4.17-24.63-4.17-5.1 0-9.27.33-14.24 1.12-8.36 1.36-12.77 3.72-12.77 5.2v55.4c0 .9 1.24 2.02 3.62 3.26h-45.54c-10.74 0-19.44-8.7-19.44-19.4v-74.02c0-10.72 8.7-19.4 19.44-19.4z" fill="#19486f"/><path d="M319.43 100h74.12c10.74 0 19.44 8.7 19.44 19.4V152c-3.85-2.03-12.2-4.17-24.64-4.17-5.1 0-9.27.34-14.24 1.13-8.36 1.35-12.77 3.72-12.77 5.18v55.4c0 .9 1.25 2.02 3.62 3.26h-45.54c-10.73 0-19.43-8.7-19.43-19.4v-74c0-10.7 8.7-19.4 19.43-19.4z" fill="#2e73b8"/><path d="M390.3 162.72c-4.22-.02-7.8.25-11.97.9-3.76.24-6.97-.05-10.64-.94v5.3c0 1.25 3.7 3.25 10.63 4.37 4.17.67 7.75.93 11.96.9 14.72 0 22.7-3.47 22.7-5.26v-5.32zM367.16 178.34v36.36c0 1.87 6.4 5.25 21.58 5.25 6.63.16 12.3-.46 18.75-2.13 3-.96 5.16-2.12 5.4-2.9v-36.17c-4.45 2.75-13.6 4.25-22.7 4.25h-3.75l-2.24-.37h-1.13l-1.78-.13-.97-.17-1.92-.25c-4.16-.54-7.6-1.66-11.24-3.74z" fill="#19486f"/><path d="M390.3 157.42c-4.22-.02-7.8.25-11.97.9-7.02 1.16-10.64 3.16-10.64 4.37 0 1.2 3.7 3.22 10.63 4.35 4.17.66 7.75.93 11.96.9 14.72 0 22.7-3.47 22.7-5.26 0-1.8-7.98-5.28-22.7-5.28zM367.16 173v36.37c0 1.87 6.4 5.25 21.58 5.25 6.63.16 12.3-.46 18.75-2.13 3-.96 5.16-2.13 5.4-2.92v-36.16c-4.45 2.75-13.6 4.25-22.7 4.25h-3.75l-2.24-.37h-1.13l-1.78-.34h-.97l-1.92-.24c-4.16-.5-7.6-1.63-11.24-3.7z" fill="#2e73b8"/><path d="M319.48 212.77h45.44v4.65h-45.44c-10.78 0-19.48-8.7-19.48-19.4v-4.68.02c0 10.72 8.7 19.4 19.48 19.4z" fill="#19486f"/><path d="M316.52 113.33h6.6l3.16 15.55 3.2-15.55h6.57v22.02h-4v-17.57l-3.93 17.57h-3.6l-3.84-17.57v17.57h-4.16zM338.48 137.6c.38.04.7.04 1.1 0 1.58 0 2.13-.87 2.28-2.32l-4.56-16.52h4.27l2.55 11.43 2.12-11.48h4.27l-4 15.48c-1.48 5.75-2.45 6.54-6.4 6.54h-1.72zM357.45 128.48v.64c0 2.13.6 3.37 2.95 3.37h.34c1.4-.12 2.43-1.34 2.33-2.7 0-2.03-1.03-2.76-3.98-3.8-3.97-1.34-5.8-3-5.8-6.64 0-4.26 2.64-6.4 6.85-6.4 4.2 0 6.82 1.7 6.82 5.92v.67h-4.27c0-2.13-.7-3.28-2.4-3.28-.2-.02-.37-.02-.58 0-1.24.16-2.12 1.3-1.96 2.54 0 1.4.4 2.14 2.27 3l3.43 1.5c3.36 1.45 4.27 3.16 4.27 5.85 0 4.65-2.83 6.73-7.65 6.73s-7.02-2.34-7.02-6.4v-1zM381.86 138.08l-2.62-2.73c-.47.17-.88.27-1.36.35-.55.03-1.02.03-1.6 0-6.65 0-7.5-4.75-7.5-11.45 0-6.7.85-11.45 7.5-11.45 6.7 0 7.52 4.76 7.52 11.45.32 3.24-.23 6.04-1.7 8.92l2.38 2.43zm-5.57-5.56c2.6 0 3.05-2.25 3.05-8.17 0-5.9-.44-8.16-3.06-8.16-2.63 0-3.07 2.26-3.07 8.15 0 5.9.44 8.17 3.06 8.17zM385.77 135.35v-22.02h4.45v18.4h7.9v3.62zM377.8 181.25h6.97l4.95 20.7 5.04-20.7h6.82v28.02h-4.26v-23.23l-5.7 23.23h-3.78l-5.6-23.23v23.23h-4.43z" fill="#fff"/><use xlink:href="#r" transform="matrix(1,0,0,1,300,220) translate(1.4074074074074119 17.77777777777778)"/><use xlink:href="#s" transform="matrix(1,0,0,1,300,220) translate(80.79012345679013 17.77777777777778)"/><use xlink:href="#t" transform="matrix(1,0,0,1,300,220) translate(15.172839506172842 44.44444444444444)"/><path d="M799.08 184.33H546c-3.3 0-6 2.7-6 6V380" stroke="#5e5e5e" stroke-width="2" fill="none"/><path d="M800.13 185.33h-1.08v-2h.98z" fill="#5e5e5e"/><path d="M540 395.26L535.36 381h9.28z" stroke="#5e5e5e" stroke-width="2" fill="#5e5e5e"/><path d="M857.5 241v139" stroke="#5e5e5e" stroke-width="2" fill="none"/><path d="M857.5 240h.53l.47-.04V241h-2v-1.06z" fill="#5e5e5e"/><path d="M857.5 395.26L852.86 381h9.28z" stroke="#5e5e5e" stroke-width="2" fill="#5e5e5e"/><path d="M915.44 190H1174c3.3 0 6 2.7 6 6v184" stroke="#5e5e5e" stroke-width="2" fill="none"/><path d="M915.47 191h-1.16l.27-2h.9z" fill="#5e5e5e"/><path d="M1180 395.26l-4.64-14.26h9.28z" stroke="#5e5e5e" stroke-width="2" fill="#5e5e5e"/><path d="M551.2 565.92c1.08-1.13 2.1-2.25 3.18-3.4.33-.38.75-.78 1.07-1.18-.28-.45-.74-.78-1.16-.96-.8-.4-1.6-.26-2.35.28-.97.7-1.4 1.83-1.4 3.23.05.55.15 1.07.38 1.55l.28.47m1.22 1.07c.5.2 1.12.18 1.63.06.28-.14.98-.52 1.22-.46h.04l.06.03c.14.1.28.22.37.43.2.45.1.9-.28 1.18l-.1.1c-1.34.97-2.8.83-4.1-.08-.65-.43-1.1-1.08-1.5-1.86l-.08-.18c-.84-1.87-.75-3.83.23-5.6.33-.6.75-1.1 1.26-1.46l.23-.14c1.25-.92 2.6-.86 3.9-.06.67.43 1.27 1.07 1.64 1.92l.05.15c.32.6-.06 1.15-.43 1.52-.47.43-.88.94-1.3 1.38-.98 1.02-1.92 2.04-2.85 3.06zm10.07-8.5h.13c.42 0 .7.35.7.88 0 .74-.56.92-1.02.92-.65 0-1.25.48-1.67 1.02-.56.67-.8 1.53-.8 2.5v4.26c0 .5-.23.9-.65.9h-.14c-.37 0-.65-.4-.65-.9v-4.52c0-1.74.7-3.17 1.8-4.15.7-.6 1.45-.9 2.3-.9zm-17.63 3.03c.56-.68 1.07-1.37 1.63-2.05.18-.18.74-1 .98-1h.28v.03c.32.1.56.34.56.77v.18c0 .3-.24.64-.42.85l-.98 1.26-1.73 2.17c.74.93 1.48 1.84 2.18 2.77.24.27.42.53.6.78.1.1.2.2.24.35.1.1.1.25.1.38v.25c-.05.4-.28.72-.6.72h-.15c-.23 0-.5-.33-.65-.5l-.98-1.22-1.07-1.33v2.14c0 .48-.24.88-.66.88h-.08c-.42 0-.65-.4-.65-.88v-12.02c0-.5.23-.88.65-.88h.1c.4 0 .65.4.65.88v5.5zm-4.62-1.2c-.2-.12-.6-.16-.84-.17-1.16-.06-2 .78-2.5 2.08-.2.44-.24.93-.24 1.43 0 1.5.6 2.57 1.68 3.22.42.23.93.27 1.35.27.36 0 .92-.3 1.25-.5l.05-.03h.28c.32.1.6.35.6.78v.18c0 1.08-1.58 1.32-2.2 1.37-2.14.18-3.72-1.27-4.33-3.8-.1-.43-.14-.88-.14-1.33v-.35c0-1.93.8-3.45 2.1-4.42.62-.46 1.27-.7 2.02-.7h.28c.74 0 1.44.28 2.05.8l.04.05.04.07c.05.14.14.3.14.47v.17c0 .45-.28.7-.6.77l-.05.03h-.1c-.18-.02-.65-.28-.88-.4zm-12.87 3.37c0 1.34.5 2.33 1.44 3.04.42.32.9.47 1.4.47 1.03 0 1.82-.67 2.38-1.8.28-.52.37-1.12.37-1.73 0-1.26-.46-2.2-1.3-2.9-.47-.4-.93-.57-1.5-.57-1.16 0-2.05.75-2.56 2.07-.13.46-.22.93-.22 1.43zm2.66-5.28h.18c1.63 0 2.9 1 3.7 2.8.3.7.45 1.48.45 2.3v.36c0 1.9-.74 3.44-2.05 4.4-.6.46-1.3.7-2 .7h-.28c-1.54 0-2.76-.95-3.55-2.6-.33-.77-.52-1.6-.52-2.5v-.36c0-1.92.74-3.43 2.05-4.42.6-.45 1.3-.68 2-.68zm-11.94 5.28c0 1.4.56 2.43 1.54 3.1.37.26.8.4 1.26.4 1.07 0 1.86-.63 2.42-1.78.28-.54.37-1.13.37-1.75 0-1.2-.43-2.14-1.22-2.85-.47-.4-.98-.62-1.58-.62-1.17 0-2 .75-2.52 2.07-.2.46-.28.93-.28 1.43zm5.6-3.96V556c0-.5.27-.88.65-.88h.14c.4 0 .64.4.64.9v7.86c0 1.9-.75 3.44-2.1 4.4-.6.46-1.26.7-2 .7h-.28c-1.54 0-2.76-.95-3.5-2.6-.38-.77-.56-1.6-.56-2.5v-.36c0-1.92.74-3.45 2.1-4.42.6-.45 1.26-.68 1.96-.68h.28c1.07 0 1.95.5 2.65 1.32zM543.57 530.45h4.2v5.33h2.1c.97 0 2-.2 2.9-.6.44-.2.97-.46 1.42-.8-.62-.95-.9-2.17-1-3.36-.1-1.66.13-3.77 1.03-5.03l.45-.64.5.5c1.34 1.32 2.44 3.17 2.6 5.3 1.6-.6 3.48-.44 4.87.55l.57.44-.3.73c-1.17 2.88-3.66 3.77-6.07 3.6-3.6 11.3-11.48 16.6-21 16.6-4.94 0-9.48-2.3-12.05-7.76l-.04-.1-.37-.95c-.87-2.42-1.15-5.03-1-7.68l.1-.8h3.55v-5.32h4.16v-5.22h8.4V520h4.97v10.45z" stroke="#000" stroke-opacity="0" fill="#394d54"/><path d="M557.12 532.42c.27-2.72-1.37-4.85-2.35-5.87-1.18 1.7-1.38 6.08.47 7.95-1.02 1.13-3.18 2.16-5.38 2.16H523.1c-.2 2.87.2 5.52 1.14 7.78l.28.7c.2.4.43.78.66 1.17 1.1.1 2.08.14 3.03.1 1.85-.04 3.3-.32 4.44-.8.16-.06.35.04.43.25.04.2-.04.43-.2.5-.15.1-.3.14-.47.2-.9.3-1.84.53-3.1.63h-.07c-.04 0-.08 0-.12.03-.46.03-1 .03-1.52.03-.6 0-1.18 0-1.8-.05l-.05.03c2.24 3.14 5.73 5 10.1 5 9.25 0 17.1-5.12 20.54-16.62 2.48.3 4.87-.5 5.93-3.1-1.73-1.26-3.92-.85-5.18-.06z" stroke="#000" stroke-opacity="0" fill="#00aada"/><path d="M557.1 532.42c.27-2.72-1.36-4.86-2.33-5.87-1.18 1.67-1.37 6.1.45 7.94-1 1.14-3.16 2.15-5.34 2.15H524.7c-.1 4.4 1.2 7.75 3.52 9.76 1.82-.04 3.3-.32 4.43-.8.16-.07.36.04.4.26.05.2 0 .42-.2.5-.14.07-.3.12-.46.18-.9.3-1.93.55-3.17.66l-.03-.04c3.16 2.03 7.72 2 12.96-.5 5.86-2.8 11.3-8.2 15.12-14.33-.07.02-.1.07-.17.1z" stroke="#000" stroke-opacity="0" fill="#24b8eb"/><path d="M523.17 540.14c.16 1.54.54 2.98 1.07 4.3l.3.7c.17.4.4.8.6 1.17 1.12.1 2.15.13 3.07.1 1.83-.04 3.3-.3 4.44-.8.16-.08.35.03.4.25.07.2-.02.44-.18.5-.16.08-.3.14-.47.2-.9.3-1.93.53-3.16.63h-.15c-.48.05-1.02.06-1.55.06-.57 0-1.17 0-1.83-.05 2.23 3.13 5.76 5 10.13 5 7.9 0 14.78-3.76 18.78-12.06h-31.46z" stroke="#000" stroke-opacity="0" fill="#008bb8"/><path d="M524.95 540.14c.47 2.7 1.62 4.82 3.26 6.26 1.82-.04 3.3-.3 4.43-.8.18-.07.37.04.42.24.05.22-.03.44-.18.52l-.47.18c-.9.32-1.96.55-3.2.64 3.17 2.02 7.72 2 12.95-.52 3.16-1.52 6.2-3.78 8.93-6.52h-26.13z" stroke="#000" stroke-opacity="0" fill="#039bc6"/><path d="M529.78 531.7h.3v3.77h-.3v-3.78zm-.55 0h.3v3.77h-.3v-3.78zm-.54 0h.28v3.77h-.3v-3.78zm-.56 0h.3v3.77h-.3v-3.78zm-.55 0h.3v3.77h-.3v-3.78zm-.55 0h.3v3.77h-.3v-3.78zm-.3-.38h3.62v4.52h-3.62v-4.52zM533.96 526.47h.28v3.77h-.28v-3.77zm-.55 0h.3v3.77h-.3v-3.77zm-.54 0h.3v3.77h-.3v-3.77zm-.55 0h.3v3.77h-.3v-3.77zm-.53 0h.3v3.77h-.3v-3.77zm-.54 0h.28v3.77h-.27v-3.77zm-.3-.38h3.6v4.52h-3.6v-4.53z" stroke="#000" stroke-opacity="0" fill="#00acd3"/><path d="M533.96 531.7h.28v3.77h-.28v-3.78zm-.55 0h.3v3.77h-.3v-3.78zm-.54 0h.3v3.77h-.3v-3.78zm-.55 0h.3v3.77h-.3v-3.78zm-.53 0h.3v3.77h-.3v-3.78zm-.54 0h.28v3.77h-.27v-3.78zm-.3-.38h3.6v4.52h-3.6v-4.52z" stroke="#000" stroke-opacity="0" fill="#20c2ef"/><path d="M538.13 531.7h.3v3.77h-.3v-3.78zm-.55 0h.3v3.77h-.3v-3.78zm-.54 0h.3v3.77h-.3v-3.78zm-.55 0h.28v3.77h-.3v-3.78zm-.56 0h.3v3.77h-.3v-3.78zm-.54 0h.3v3.77h-.3v-3.78zm-.3-.38h3.62v4.52h-3.62v-4.52z" stroke="#000" stroke-opacity="0" fill="#00acd3"/><path d="M538.13 526.47h.3v3.77h-.3v-3.77zm-.55 0h.3v3.77h-.3v-3.77zm-.54 0h.3v3.77h-.3v-3.77zm-.55 0h.28v3.77h-.3v-3.77zm-.56 0h.3v3.77h-.3v-3.77zm-.54 0h.3v3.77h-.3v-3.77zm-.3-.38h3.62v4.52h-3.62v-4.53zM542.3 531.7h.3v3.77h-.3v-3.78zm-.55 0h.3v3.77h-.3v-3.78zm-.54 0h.3v3.77h-.3v-3.78zm-.54 0h.3v3.77h-.3v-3.78zm-.55 0h.3v3.77h-.3v-3.78zm-.53 0h.3v3.77h-.3v-3.78zm-.3-.38h3.62v4.52h-3.63v-4.52z" stroke="#000" stroke-opacity="0" fill="#20c2ef"/><path d="M542.3 526.47h.3v3.77h-.3v-3.77zm-.55 0h.3v3.77h-.3v-3.77zm-.54 0h.3v3.77h-.3v-3.77zm-.54 0h.3v3.77h-.3v-3.77zm-.55 0h.3v3.77h-.3v-3.77zm-.53 0h.3v3.77h-.3v-3.77zm-.3-.38h3.62v4.52h-3.63v-4.53z" stroke="#000" stroke-opacity="0" fill="#00acd3"/><path d="M542.3 521.25h.3v3.77h-.3v-3.77zm-.55 0h.3v3.77h-.3v-3.77zm-.54 0h.3v3.77h-.3v-3.77zm-.54 0h.3v3.77h-.3v-3.77zm-.55 0h.3v3.77h-.3v-3.77zm-.53 0h.3v3.77h-.3v-3.77zm-.3-.38h3.62v4.53h-3.63v-4.53z" stroke="#000" stroke-opacity="0" fill="#20c2ef"/><path d="M546.48 531.7h.28v3.77h-.28v-3.78zm-.55 0h.3v3.77h-.3v-3.78zm-.55 0h.3v3.77h-.3v-3.78zm-.55 0h.3v3.77h-.3v-3.78zm-.54 0h.28v3.77h-.3v-3.78zm-.55 0h.28v3.77h-.28v-3.78zm-.3-.38h3.6v4.52h-3.6v-4.52z" stroke="#000" stroke-opacity="0" fill="#00acd3"/><path d="M534.32 543.18c.55 0 1 .56 1 1.25 0 .7-.45 1.25-1 1.25s-1-.56-1-1.25c0-.7.45-1.25 1-1.25" stroke="#000" stroke-opacity="0" fill="#d4edf1"/><path d="M534.32 543.54c.1 0 .18.02.26.06-.1.06-.15.18-.15.32 0 .2.13.36.3.36.1 0 .2-.08.25-.2.03.1.05.23.05.35 0 .5-.32.9-.7.9-.4 0-.73-.4-.73-.9s.32-.9.72-.9M516.67 540.6h46.42c-1.03-.33-3.22-.76-2.84-2.42-1.86 2.67-6.27 1.87-7.4.56-1.24 2.26-8.48 1.4-9-.36-1.57 2.3-6.4 2.3-7.98 0-.5 1.76-7.75 2.62-9 .36-1.1 1.3-5.52 2.1-7.38-.56.37 1.66-1.8 2.1-2.83 2.42" stroke="#000" stroke-opacity="0" fill="#394d54"/><path d="M536.97 552.18c-2.48-1.47-3.83-3.46-4.6-5.64-.9.33-2 .54-3.3.63-.47.04-.98.05-1.5.05-.62 0-1.27-.02-1.95-.07 2.27 2.84 5.05 5.02 10.2 5.06.4 0 .77 0 1.15-.02z" stroke="#000" stroke-opacity="0" fill="#bfdbe0"/><path d="M533.3 548.55c-.34-.58-.67-1.3-.9-2-.93.32-2.03.53-3.32.62.9.6 2.14 1.15 4.23 1.38z" stroke="#000" stroke-opacity="0" fill="#d4edf1"/><path d="M871.2 565.92c1.08-1.13 2.1-2.25 3.18-3.4.33-.38.75-.78 1.07-1.18-.28-.45-.74-.78-1.16-.96-.8-.4-1.6-.26-2.35.28-.97.7-1.4 1.83-1.4 3.23.05.55.15 1.07.38 1.55l.28.47m1.22 1.07c.5.2 1.12.18 1.63.06.28-.14.98-.52 1.22-.46h.04l.06.03c.14.1.28.22.37.43.2.45.1.9-.28 1.18l-.1.1c-1.34.97-2.8.83-4.1-.08-.65-.43-1.1-1.08-1.5-1.86l-.08-.18c-.84-1.87-.75-3.83.23-5.6.33-.6.75-1.1 1.26-1.46l.23-.14c1.25-.92 2.6-.86 3.9-.06.67.43 1.27 1.07 1.64 1.92l.05.15c.32.6-.06 1.15-.43 1.52-.47.43-.88.94-1.3 1.38-.98 1.02-1.92 2.04-2.85 3.06zm10.07-8.5h.13c.42 0 .7.35.7.88 0 .74-.56.92-1.02.92-.65 0-1.25.48-1.67 1.02-.56.67-.8 1.53-.8 2.5v4.26c0 .5-.23.9-.65.9h-.14c-.37 0-.65-.4-.65-.9v-4.52c0-1.74.7-3.17 1.8-4.15.7-.6 1.45-.9 2.3-.9zm-17.63 3.03c.56-.68 1.07-1.37 1.63-2.05.18-.18.74-1 .98-1h.28v.03c.32.1.56.34.56.77v.18c0 .3-.24.64-.42.85l-.98 1.26-1.73 2.17c.74.93 1.48 1.84 2.18 2.77.24.27.42.53.6.78.1.1.2.2.24.35.1.1.1.25.1.38v.25c-.05.4-.28.72-.6.72h-.15c-.23 0-.5-.33-.65-.5l-.98-1.22-1.07-1.33v2.14c0 .48-.24.88-.66.88h-.08c-.42 0-.65-.4-.65-.88v-12.02c0-.5.23-.88.65-.88h.1c.4 0 .65.4.65.88v5.5zm-4.62-1.2c-.2-.12-.6-.16-.84-.17-1.16-.06-2 .78-2.5 2.08-.2.44-.24.93-.24 1.43 0 1.5.6 2.57 1.68 3.22.42.23.93.27 1.35.27.36 0 .92-.3 1.25-.5l.05-.03h.28c.32.1.6.35.6.78v.18c0 1.08-1.58 1.32-2.2 1.37-2.14.18-3.72-1.27-4.33-3.8-.1-.43-.14-.88-.14-1.33v-.35c0-1.93.8-3.45 2.1-4.42.62-.46 1.27-.7 2.02-.7h.28c.74 0 1.44.28 2.05.8l.04.05.04.07c.05.14.14.3.14.47v.17c0 .45-.28.7-.6.77l-.05.03h-.1c-.18-.02-.65-.28-.88-.4zm-12.87 3.37c0 1.34.5 2.33 1.44 3.04.42.32.9.47 1.4.47 1.03 0 1.82-.67 2.38-1.8.28-.52.37-1.12.37-1.73 0-1.26-.46-2.2-1.3-2.9-.47-.4-.93-.57-1.5-.57-1.16 0-2.05.75-2.56 2.07-.13.46-.22.93-.22 1.43zm2.66-5.28h.18c1.63 0 2.9 1 3.7 2.8.3.7.45 1.48.45 2.3v.36c0 1.9-.74 3.44-2.05 4.4-.6.46-1.3.7-2 .7h-.28c-1.54 0-2.76-.95-3.55-2.6-.33-.77-.52-1.6-.52-2.5v-.36c0-1.92.74-3.43 2.05-4.42.6-.45 1.3-.68 2-.68zm-11.94 5.28c0 1.4.56 2.43 1.54 3.1.37.26.8.4 1.26.4 1.07 0 1.86-.63 2.42-1.78.28-.54.37-1.13.37-1.75 0-1.2-.43-2.14-1.22-2.85-.47-.4-.98-.62-1.58-.62-1.17 0-2 .75-2.52 2.07-.2.46-.28.93-.28 1.43zm5.6-3.96V556c0-.5.27-.88.65-.88h.14c.4 0 .64.4.64.9v7.86c0 1.9-.75 3.44-2.1 4.4-.6.46-1.26.7-2 .7h-.28c-1.54 0-2.76-.95-3.5-2.6-.38-.77-.56-1.6-.56-2.5v-.36c0-1.92.74-3.45 2.1-4.42.6-.45 1.26-.68 1.96-.68h.28c1.07 0 1.95.5 2.65 1.32zM863.57 530.45h4.2v5.33h2.1c.97 0 2-.2 2.9-.6.44-.2.97-.46 1.42-.8-.62-.95-.9-2.17-1-3.36-.1-1.66.13-3.77 1.03-5.03l.45-.64.5.5c1.34 1.32 2.44 3.17 2.6 5.3 1.6-.6 3.48-.44 4.87.55l.57.44-.3.73c-1.17 2.88-3.66 3.77-6.07 3.6-3.6 11.3-11.48 16.6-21 16.6-4.94 0-9.48-2.3-12.05-7.76l-.04-.1-.37-.95c-.87-2.42-1.15-5.03-1-7.68l.1-.8h3.55v-5.32h4.16v-5.22h8.4V520h4.97v10.45z" stroke="#000" stroke-opacity="0" fill="#394d54"/><path d="M877.12 532.42c.27-2.72-1.37-4.85-2.35-5.87-1.18 1.7-1.38 6.08.47 7.95-1.02 1.13-3.18 2.16-5.38 2.16H843.1c-.2 2.87.2 5.52 1.14 7.78l.28.7c.2.4.43.78.66 1.17 1.1.1 2.08.14 3.03.1 1.85-.04 3.3-.32 4.44-.8.16-.06.35.04.43.25.04.2-.04.43-.2.5-.15.1-.3.14-.47.2-.9.3-1.84.53-3.1.63h-.07c-.04 0-.08 0-.12.03-.46.03-1 .03-1.52.03-.6 0-1.18 0-1.8-.05l-.05.03c2.24 3.14 5.73 5 10.1 5 9.25 0 17.1-5.12 20.54-16.62 2.48.3 4.87-.5 5.93-3.1-1.73-1.26-3.92-.85-5.18-.06z" stroke="#000" stroke-opacity="0" fill="#00aada"/><path d="M877.1 532.42c.27-2.72-1.36-4.86-2.33-5.87-1.18 1.67-1.37 6.1.45 7.94-1 1.14-3.16 2.15-5.34 2.15H844.7c-.1 4.4 1.2 7.75 3.52 9.76 1.82-.04 3.3-.32 4.43-.8.16-.07.36.04.4.26.05.2 0 .42-.2.5-.14.07-.3.12-.46.18-.9.3-1.93.55-3.17.66l-.03-.04c3.16 2.03 7.72 2 12.96-.5 5.86-2.8 11.3-8.2 15.12-14.33-.07.02-.1.07-.17.1z" stroke="#000" stroke-opacity="0" fill="#24b8eb"/><path d="M843.17 540.14c.16 1.54.54 2.98 1.07 4.3l.3.7c.17.4.4.8.6 1.17 1.12.1 2.15.13 3.07.1 1.83-.04 3.3-.3 4.44-.8.16-.08.35.03.4.25.07.2-.02.44-.18.5-.16.08-.3.14-.47.2-.9.3-1.93.53-3.16.63h-.15c-.48.05-1.02.06-1.55.06-.57 0-1.17 0-1.83-.05 2.23 3.13 5.76 5 10.13 5 7.9 0 14.78-3.76 18.78-12.06h-31.46z" stroke="#000" stroke-opacity="0" fill="#008bb8"/><path d="M844.95 540.14c.47 2.7 1.62 4.82 3.26 6.26 1.82-.04 3.3-.3 4.43-.8.18-.07.37.04.42.24.05.22-.03.44-.18.52l-.47.18c-.9.32-1.96.55-3.2.64 3.17 2.02 7.72 2 12.95-.52 3.16-1.52 6.2-3.78 8.93-6.52h-26.13z" stroke="#000" stroke-opacity="0" fill="#039bc6"/><path d="M849.78 531.7h.3v3.77h-.3v-3.78zm-.55 0h.3v3.77h-.3v-3.78zm-.54 0h.28v3.77h-.3v-3.78zm-.56 0h.3v3.77h-.3v-3.78zm-.55 0h.3v3.77h-.3v-3.78zm-.55 0h.3v3.77h-.3v-3.78zm-.3-.38h3.62v4.52h-3.62v-4.52zM853.96 526.47h.28v3.77h-.28v-3.77zm-.55 0h.3v3.77h-.3v-3.77zm-.54 0h.3v3.77h-.3v-3.77zm-.55 0h.3v3.77h-.3v-3.77zm-.53 0h.3v3.77h-.3v-3.77zm-.54 0h.28v3.77h-.27v-3.77zm-.3-.38h3.6v4.52h-3.6v-4.53z" stroke="#000" stroke-opacity="0" fill="#00acd3"/><path d="M853.96 531.7h.28v3.77h-.28v-3.78zm-.55 0h.3v3.77h-.3v-3.78zm-.54 0h.3v3.77h-.3v-3.78zm-.55 0h.3v3.77h-.3v-3.78zm-.53 0h.3v3.77h-.3v-3.78zm-.54 0h.28v3.77h-.27v-3.78zm-.3-.38h3.6v4.52h-3.6v-4.52z" stroke="#000" stroke-opacity="0" fill="#20c2ef"/><path d="M858.13 531.7h.3v3.77h-.3v-3.78zm-.55 0h.3v3.77h-.3v-3.78zm-.54 0h.3v3.77h-.3v-3.78zm-.55 0h.28v3.77h-.3v-3.78zm-.56 0h.3v3.77h-.3v-3.78zm-.54 0h.3v3.77h-.3v-3.78zm-.3-.38h3.62v4.52h-3.62v-4.52z" stroke="#000" stroke-opacity="0" fill="#00acd3"/><path d="M858.13 526.47h.3v3.77h-.3v-3.77zm-.55 0h.3v3.77h-.3v-3.77zm-.54 0h.3v3.77h-.3v-3.77zm-.55 0h.28v3.77h-.3v-3.77zm-.56 0h.3v3.77h-.3v-3.77zm-.54 0h.3v3.77h-.3v-3.77zm-.3-.38h3.62v4.52h-3.62v-4.53zM862.3 531.7h.3v3.77h-.3v-3.78zm-.55 0h.3v3.77h-.3v-3.78zm-.54 0h.3v3.77h-.3v-3.78zm-.54 0h.3v3.77h-.3v-3.78zm-.55 0h.3v3.77h-.3v-3.78zm-.53 0h.3v3.77h-.3v-3.78zm-.3-.38h3.62v4.52h-3.63v-4.52z" stroke="#000" stroke-opacity="0" fill="#20c2ef"/><path d="M862.3 526.47h.3v3.77h-.3v-3.77zm-.55 0h.3v3.77h-.3v-3.77zm-.54 0h.3v3.77h-.3v-3.77zm-.54 0h.3v3.77h-.3v-3.77zm-.55 0h.3v3.77h-.3v-3.77zm-.53 0h.3v3.77h-.3v-3.77zm-.3-.38h3.62v4.52h-3.63v-4.53z" stroke="#000" stroke-opacity="0" fill="#00acd3"/><path d="M862.3 521.25h.3v3.77h-.3v-3.77zm-.55 0h.3v3.77h-.3v-3.77zm-.54 0h.3v3.77h-.3v-3.77zm-.54 0h.3v3.77h-.3v-3.77zm-.55 0h.3v3.77h-.3v-3.77zm-.53 0h.3v3.77h-.3v-3.77zm-.3-.38h3.62v4.53h-3.63v-4.53z" stroke="#000" stroke-opacity="0" fill="#20c2ef"/><path d="M866.48 531.7h.28v3.77h-.28v-3.78zm-.55 0h.3v3.77h-.3v-3.78zm-.55 0h.3v3.77h-.3v-3.78zm-.55 0h.3v3.77h-.3v-3.78zm-.54 0h.28v3.77h-.3v-3.78zm-.55 0h.28v3.77h-.28v-3.78zm-.3-.38h3.6v4.52h-3.6v-4.52z" stroke="#000" stroke-opacity="0" fill="#00acd3"/><path d="M854.32 543.18c.55 0 1 .56 1 1.25 0 .7-.45 1.25-1 1.25s-1-.56-1-1.25c0-.7.45-1.25 1-1.25" stroke="#000" stroke-opacity="0" fill="#d4edf1"/><path d="M854.32 543.54c.1 0 .18.02.26.06-.1.06-.15.18-.15.32 0 .2.13.36.3.36.1 0 .2-.08.25-.2.03.1.05.23.05.35 0 .5-.32.9-.7.9-.4 0-.73-.4-.73-.9s.32-.9.72-.9M836.67 540.6h46.42c-1.03-.33-3.22-.76-2.84-2.42-1.86 2.67-6.27 1.87-7.4.56-1.24 2.26-8.48 1.4-9-.36-1.57 2.3-6.4 2.3-7.98 0-.5 1.76-7.75 2.62-9 .36-1.1 1.3-5.52 2.1-7.38-.56.37 1.66-1.8 2.1-2.83 2.42" stroke="#000" stroke-opacity="0" fill="#394d54"/><path d="M856.97 552.18c-2.48-1.47-3.83-3.46-4.6-5.64-.9.33-2 .54-3.3.63-.47.04-.98.05-1.5.05-.62 0-1.27-.02-1.95-.07 2.27 2.84 5.05 5.02 10.2 5.06.4 0 .77 0 1.15-.02z" stroke="#000" stroke-opacity="0" fill="#bfdbe0"/><path d="M853.3 548.55c-.34-.58-.67-1.3-.9-2-.93.32-2.03.53-3.32.62.9.6 2.14 1.15 4.23 1.38z" stroke="#000" stroke-opacity="0" fill="#d4edf1"/><path d="M1191.2 565.92c1.08-1.13 2.1-2.25 3.18-3.4.33-.38.75-.78 1.07-1.18-.28-.45-.74-.78-1.16-.96-.8-.4-1.6-.26-2.35.28-.97.7-1.4 1.83-1.4 3.23.05.55.15 1.07.38 1.55l.28.47m1.22 1.07c.5.2 1.12.18 1.63.06.28-.14.98-.52 1.22-.46h.04l.06.03c.14.1.28.22.37.43.2.45.1.9-.28 1.18l-.1.1c-1.34.97-2.8.83-4.1-.08-.65-.43-1.1-1.08-1.5-1.86l-.08-.18c-.84-1.87-.75-3.83.23-5.6.33-.6.75-1.1 1.26-1.46l.23-.14c1.25-.92 2.6-.86 3.9-.06.67.43 1.27 1.07 1.64 1.92l.05.15c.32.6-.06 1.15-.43 1.52-.47.43-.88.94-1.3 1.38-.98 1.02-1.92 2.04-2.85 3.06zm10.07-8.5h.13c.42 0 .7.35.7.88 0 .74-.56.92-1.02.92-.65 0-1.25.48-1.67 1.02-.56.67-.8 1.53-.8 2.5v4.26c0 .5-.23.9-.65.9h-.14c-.37 0-.65-.4-.65-.9v-4.52c0-1.74.7-3.17 1.8-4.15.7-.6 1.45-.9 2.3-.9zm-17.63 3.03c.56-.68 1.07-1.37 1.63-2.05.18-.18.74-1 .98-1h.28v.03c.32.1.56.34.56.77v.18c0 .3-.24.64-.42.85l-.98 1.26-1.73 2.17c.74.93 1.48 1.84 2.18 2.77.24.27.42.53.6.78.1.1.2.2.24.35.1.1.1.25.1.38v.25c-.05.4-.28.72-.6.72h-.15c-.23 0-.5-.33-.65-.5l-.98-1.22-1.07-1.33v2.14c0 .48-.24.88-.66.88h-.08c-.42 0-.65-.4-.65-.88v-12.02c0-.5.23-.88.65-.88h.1c.4 0 .65.4.65.88v5.5zm-4.62-1.2c-.2-.12-.6-.16-.84-.17-1.16-.06-2 .78-2.5 2.08-.2.44-.24.93-.24 1.43 0 1.5.6 2.57 1.68 3.22.42.23.93.27 1.35.27.36 0 .92-.3 1.25-.5l.05-.03h.28c.32.1.6.35.6.78v.18c0 1.08-1.58 1.32-2.2 1.37-2.14.18-3.72-1.27-4.33-3.8-.1-.43-.14-.88-.14-1.33v-.35c0-1.93.8-3.45 2.1-4.42.62-.46 1.27-.7 2.02-.7h.28c.74 0 1.44.28 2.05.8l.04.05.04.07c.05.14.14.3.14.47v.17c0 .45-.28.7-.6.77l-.05.03h-.1c-.18-.02-.65-.28-.88-.4zm-12.87 3.37c0 1.34.5 2.33 1.44 3.04.42.32.9.47 1.4.47 1.03 0 1.82-.67 2.38-1.8.28-.52.37-1.12.37-1.73 0-1.26-.46-2.2-1.3-2.9-.47-.4-.93-.57-1.5-.57-1.16 0-2.05.75-2.56 2.07-.13.46-.22.93-.22 1.43zm2.66-5.28h.18c1.63 0 2.9 1 3.7 2.8.3.7.45 1.48.45 2.3v.36c0 1.9-.74 3.44-2.05 4.4-.6.46-1.3.7-2 .7h-.28c-1.54 0-2.76-.95-3.55-2.6-.33-.77-.52-1.6-.52-2.5v-.36c0-1.92.74-3.43 2.05-4.42.6-.45 1.3-.68 2-.68zm-11.94 5.28c0 1.4.56 2.43 1.54 3.1.37.26.8.4 1.26.4 1.07 0 1.86-.63 2.42-1.78.28-.54.37-1.13.37-1.75 0-1.2-.43-2.14-1.22-2.85-.47-.4-.98-.62-1.58-.62-1.17 0-2 .75-2.52 2.07-.2.46-.28.93-.28 1.43zm5.6-3.96V556c0-.5.27-.88.65-.88h.14c.4 0 .64.4.64.9v7.86c0 1.9-.75 3.44-2.1 4.4-.6.46-1.26.7-2 .7h-.28c-1.54 0-2.76-.95-3.5-2.6-.38-.77-.56-1.6-.56-2.5v-.36c0-1.92.74-3.45 2.1-4.42.6-.45 1.26-.68 1.96-.68h.28c1.07 0 1.95.5 2.65 1.32zM1183.57 530.45h4.2v5.33h2.1c.97 0 2-.2 2.9-.6.44-.2.97-.46 1.42-.8-.62-.95-.9-2.17-1-3.36-.1-1.66.13-3.77 1.03-5.03l.45-.64.5.5c1.34 1.32 2.44 3.17 2.6 5.3 1.6-.6 3.48-.44 4.87.55l.57.44-.3.73c-1.17 2.88-3.66 3.77-6.07 3.6-3.6 11.3-11.48 16.6-21 16.6-4.94 0-9.48-2.3-12.05-7.76l-.04-.1-.37-.95c-.87-2.42-1.15-5.03-1-7.68l.1-.8h3.55v-5.32h4.16v-5.22h8.4V520h4.97v10.45z" stroke="#000" stroke-opacity="0" fill="#394d54"/><path d="M1197.12 532.42c.27-2.72-1.37-4.85-2.35-5.87-1.18 1.7-1.38 6.08.47 7.95-1.02 1.13-3.18 2.16-5.38 2.16h-26.75c-.2 2.87.2 5.52 1.14 7.78l.28.7c.2.4.43.78.66 1.17 1.1.1 2.08.14 3.03.1 1.85-.04 3.3-.32 4.44-.8.16-.06.35.04.43.25.04.2-.04.43-.2.5-.15.1-.3.14-.47.2-.9.3-1.84.53-3.1.63h-.07c-.04 0-.08 0-.12.03-.46.03-1 .03-1.52.03-.6 0-1.18 0-1.8-.05l-.05.03c2.24 3.14 5.73 5 10.1 5 9.25 0 17.1-5.12 20.54-16.62 2.48.3 4.87-.5 5.93-3.1-1.73-1.26-3.92-.85-5.18-.06z" stroke="#000" stroke-opacity="0" fill="#00aada"/><path d="M1197.1 532.42c.27-2.72-1.36-4.86-2.33-5.87-1.18 1.67-1.37 6.1.45 7.94-1 1.14-3.16 2.15-5.34 2.15h-25.18c-.1 4.4 1.2 7.75 3.52 9.76 1.82-.04 3.3-.32 4.43-.8.16-.07.36.04.4.26.05.2 0 .42-.2.5-.14.07-.3.12-.46.18-.9.3-1.93.55-3.17.66l-.03-.04c3.16 2.03 7.72 2 12.96-.5 5.86-2.8 11.3-8.2 15.12-14.33-.07.02-.1.07-.17.1z" stroke="#000" stroke-opacity="0" fill="#24b8eb"/><path d="M1163.17 540.14c.16 1.54.54 2.98 1.07 4.3l.3.7c.17.4.4.8.6 1.17 1.12.1 2.15.13 3.07.1 1.83-.04 3.3-.3 4.44-.8.16-.08.35.03.4.25.07.2-.02.44-.18.5-.16.08-.3.14-.47.2-.9.3-1.93.53-3.16.63h-.15c-.48.05-1.02.06-1.55.06-.57 0-1.17 0-1.83-.05 2.23 3.13 5.76 5 10.13 5 7.9 0 14.78-3.76 18.78-12.06h-31.46z" stroke="#000" stroke-opacity="0" fill="#008bb8"/><path d="M1164.95 540.14c.47 2.7 1.62 4.82 3.26 6.26 1.82-.04 3.3-.3 4.43-.8.18-.07.37.04.42.24.05.22-.03.44-.18.52l-.47.18c-.9.32-1.96.55-3.2.64 3.17 2.02 7.72 2 12.95-.52 3.16-1.52 6.2-3.78 8.93-6.52h-26.13z" stroke="#000" stroke-opacity="0" fill="#039bc6"/><path d="M1169.78 531.7h.3v3.77h-.3v-3.78zm-.55 0h.3v3.77h-.3v-3.78zm-.54 0h.28v3.77h-.3v-3.78zm-.56 0h.3v3.77h-.3v-3.78zm-.55 0h.3v3.77h-.3v-3.78zm-.55 0h.3v3.77h-.3v-3.78zm-.3-.38h3.62v4.52h-3.62v-4.52zM1173.96 526.47h.28v3.77h-.28v-3.77zm-.55 0h.3v3.77h-.3v-3.77zm-.54 0h.3v3.77h-.3v-3.77zm-.55 0h.3v3.77h-.3v-3.77zm-.53 0h.3v3.77h-.3v-3.77zm-.54 0h.28v3.77h-.27v-3.77zm-.3-.38h3.6v4.52h-3.6v-4.53z" stroke="#000" stroke-opacity="0" fill="#00acd3"/><path d="M1173.96 531.7h.28v3.77h-.28v-3.78zm-.55 0h.3v3.77h-.3v-3.78zm-.54 0h.3v3.77h-.3v-3.78zm-.55 0h.3v3.77h-.3v-3.78zm-.53 0h.3v3.77h-.3v-3.78zm-.54 0h.28v3.77h-.27v-3.78zm-.3-.38h3.6v4.52h-3.6v-4.52z" stroke="#000" stroke-opacity="0" fill="#20c2ef"/><path d="M1178.13 531.7h.3v3.77h-.3v-3.78zm-.55 0h.3v3.77h-.3v-3.78zm-.54 0h.3v3.77h-.3v-3.78zm-.55 0h.28v3.77h-.3v-3.78zm-.56 0h.3v3.77h-.3v-3.78zm-.54 0h.3v3.77h-.3v-3.78zm-.3-.38h3.62v4.52h-3.62v-4.52z" stroke="#000" stroke-opacity="0" fill="#00acd3"/><path d="M1178.13 526.47h.3v3.77h-.3v-3.77zm-.55 0h.3v3.77h-.3v-3.77zm-.54 0h.3v3.77h-.3v-3.77zm-.55 0h.28v3.77h-.3v-3.77zm-.56 0h.3v3.77h-.3v-3.77zm-.54 0h.3v3.77h-.3v-3.77zm-.3-.38h3.62v4.52h-3.62v-4.53zM1182.3 531.7h.3v3.77h-.3v-3.78zm-.55 0h.3v3.77h-.3v-3.78zm-.54 0h.3v3.77h-.3v-3.78zm-.54 0h.3v3.77h-.3v-3.78zm-.55 0h.3v3.77h-.3v-3.78zm-.53 0h.3v3.77h-.3v-3.78zm-.3-.38h3.62v4.52h-3.63v-4.52z" stroke="#000" stroke-opacity="0" fill="#20c2ef"/><path d="M1182.3 526.47h.3v3.77h-.3v-3.77zm-.55 0h.3v3.77h-.3v-3.77zm-.54 0h.3v3.77h-.3v-3.77zm-.54 0h.3v3.77h-.3v-3.77zm-.55 0h.3v3.77h-.3v-3.77zm-.53 0h.3v3.77h-.3v-3.77zm-.3-.38h3.62v4.52h-3.63v-4.53z" stroke="#000" stroke-opacity="0" fill="#00acd3"/><path d="M1182.3 521.25h.3v3.77h-.3v-3.77zm-.55 0h.3v3.77h-.3v-3.77zm-.54 0h.3v3.77h-.3v-3.77zm-.54 0h.3v3.77h-.3v-3.77zm-.55 0h.3v3.77h-.3v-3.77zm-.53 0h.3v3.77h-.3v-3.77zm-.3-.38h3.62v4.53h-3.63v-4.53z" stroke="#000" stroke-opacity="0" fill="#20c2ef"/><path d="M1186.48 531.7h.28v3.77h-.28v-3.78zm-.55 0h.3v3.77h-.3v-3.78zm-.55 0h.3v3.77h-.3v-3.78zm-.55 0h.3v3.77h-.3v-3.78zm-.54 0h.28v3.77h-.3v-3.78zm-.55 0h.28v3.77h-.28v-3.78zm-.3-.38h3.6v4.52h-3.6v-4.52z" stroke="#000" stroke-opacity="0" fill="#00acd3"/><path d="M1174.32 543.18c.55 0 1 .56 1 1.25 0 .7-.45 1.25-1 1.25s-1-.56-1-1.25c0-.7.45-1.25 1-1.25" stroke="#000" stroke-opacity="0" fill="#d4edf1"/><path d="M1174.32 543.54c.1 0 .18.02.26.06-.1.06-.15.18-.15.32 0 .2.13.36.3.36.1 0 .2-.08.25-.2.03.1.05.23.05.35 0 .5-.32.9-.7.9-.4 0-.73-.4-.73-.9s.32-.9.72-.9M1156.67 540.6h46.42c-1.03-.33-3.22-.76-2.84-2.42-1.86 2.67-6.27 1.87-7.4.56-1.24 2.26-8.48 1.4-9-.36-1.57 2.3-6.4 2.3-7.98 0-.5 1.76-7.75 2.62-9 .36-1.1 1.3-5.52 2.1-7.38-.56.37 1.66-1.8 2.1-2.83 2.42" stroke="#000" stroke-opacity="0" fill="#394d54"/><path d="M1176.97 552.18c-2.48-1.47-3.83-3.46-4.6-5.64-.9.33-2 .54-3.3.63-.47.04-.98.05-1.5.05-.62 0-1.27-.02-1.95-.07 2.27 2.84 5.05 5.02 10.2 5.06.4 0 .77 0 1.15-.02z" stroke="#000" stroke-opacity="0" fill="#bfdbe0"/><path d="M1173.3 548.55c-.34-.58-.67-1.3-.9-2-.93.32-2.03.53-3.32.62.9.6 2.14 1.15 4.23 1.38z" stroke="#000" stroke-opacity="0" fill="#d4edf1"/><path d="M910.88 929.12v101.76h-95.76V929.12h95.76M920 920H806v120h114V920z" fill="#9d5025"/><path d="M910.88 929.15v96.03h-95.76v-96.03h95.76M920 920H806v114.32h114V920z" fill="#f58536"/><path d="M820.46 937.92h40.43v22.4h-40.44v-22.4zM865.1 937.92h40.43v22.4H865.1v-22.4z" fill="#9d5025"/><path d="M820.46 934.53h40.43v22.4h-40.44v-22.4z" fill="#f58536"/><path d="M822.93 936.34h2.17v18.8h-2.17v-18.8zM828.5 936.34h2.16v18.8h-2.17v-18.8zM834.03 936.34h2.17v18.8h-2.17v-18.8zM839.6 936.34h2.17v18.8h-2.16v-18.8zM845.15 936.34h2.16v18.8h-2.15v-18.8zM850.7 936.34h2.15v18.8h-2.16v-18.8zM856.24 936.34h2.17v18.8h-2.16v-18.8z" fill="#fff"/><path d="M865.1 934.53h40.43v22.4H865.1v-22.4z" fill="#f58536"/><path d="M867.6 936.34h2.17v18.8h-2.16v-18.8zM873.15 936.34h2.16v18.8h-2.15v-18.8zM878.7 936.34h2.15v18.8h-2.16v-18.8zM884.25 936.34h2.17v18.8h-2.17v-18.8zM889.8 936.34h2.16v18.8h-2.17v-18.8zM895.34 936.34h2.17v18.8h-2.16v-18.8zM900.9 936.34h2.16v18.8h-2.17v-18.8z" fill="#fff"/><path d="M820.46 967.65h40.43v22.4h-40.44v-22.4zM865.1 967.65h40.43v22.4H865.1v-22.4z" fill="#9d5025"/><path d="M820.46 964.27h40.43v22.4h-40.44v-22.4z" fill="#f58536"/><path d="M822.93 966.07h2.17v18.8h-2.17v-18.8zM828.5 966.07h2.16v18.8h-2.17v-18.8zM834.03 966.07h2.17v18.8h-2.17v-18.8zM839.6 966.07h2.17v18.8h-2.16v-18.8zM845.15 966.07h2.16v18.8h-2.15v-18.8zM850.7 966.07h2.15v18.8h-2.16v-18.8zM856.24 966.07h2.17v18.8h-2.16v-18.8z" fill="#fff"/><path d="M865.1 964.27h40.43v22.4H865.1v-22.4z" fill="#f58536"/><path d="M867.6 966.07h2.17v18.8h-2.16v-18.8zM873.15 966.07h2.16v18.8h-2.15v-18.8zM878.7 966.07h2.15v18.8h-2.16v-18.8zM884.25 966.07h2.17v18.8h-2.17v-18.8zM889.8 966.07h2.16v18.8h-2.17v-18.8zM895.34 966.07h2.17v18.8h-2.16v-18.8zM900.9 966.07h2.16v18.8h-2.17v-18.8z" fill="#fff"/><path d="M820.46 997.38h40.43v22.4h-40.44v-22.4zM865.1 997.38h40.43v22.4H865.1v-22.4z" fill="#9d5025"/><path d="M820.46 994h40.43v22.4h-40.44V994z" fill="#f58536"/><path d="M822.93 995.8h2.17v18.78h-2.17v-18.8zM828.5 995.8h2.16v18.78h-2.17v-18.8zM834.03 995.8h2.17v18.78h-2.17v-18.8zM839.6 995.8h2.17v18.78h-2.16v-18.8zM845.15 995.8h2.16v18.78h-2.15v-18.8zM850.7 995.8h2.15v18.78h-2.16v-18.8zM856.24 995.8h2.17v18.78h-2.16v-18.8z" fill="#fff"/><path d="M865.1 994h40.43v22.4H865.1V994z" fill="#f58536"/><path d="M867.6 995.8h2.17v18.78h-2.16v-18.8zM873.15 995.8h2.16v18.78h-2.15v-18.8zM878.7 995.8h2.15v18.78h-2.16v-18.8zM884.25 995.8h2.17v18.78h-2.17v-18.8zM889.8 995.8h2.16v18.78h-2.17v-18.8zM895.34 995.8h2.17v18.78h-2.16v-18.8zM900.9 995.8h2.16v18.78h-2.17v-18.8z" fill="#fff"/><g><use xlink:href="#u" transform="matrix(1,0,0,1,806,1040) translate(33.60493827160494 17.77777777777778)"/><use xlink:href="#v" transform="matrix(1,0,0,1,806,1040) translate(20.672839506172835 44.44444444444444)"/></g><path d="M806 984.32c0 .55-.45 1-1 1s-1-.45-1-1 .45-1 1-1 1 .45 1 1zm-3.98 0c0 .55-.45 1-1 1-.56 0-1-.45-1-1s.44-1 1-1c.55 0 1 .45 1 1zm-4 0c0 .55-.44 1-1 1-.54 0-1-.45-1-1s.46-1 1-1c.56 0 1 .45 1 1zm-3.97 0c0 .55-.45 1-1 1-.56 0-1-.45-1-1s.44-1 1-1c.55 0 1 .45 1 1zm-4 0c0 .55-.44 1-1 1-.54 0-1-.45-1-1s.46-1 1-1c.56 0 1 .45 1 1zm-3.97 0c0 .55-.45 1-1 1-.56 0-1-.45-1-1s.44-1 1-1c.55 0 1 .45 1 1zm-4 0c0 .55-.44 1-1 1-.54 0-1-.45-1-1s.46-1 1-1c.56 0 1 .45 1 1zm-3.97 0c0 .55-.44 1-1 1-.54 0-1-.45-1-1s.46-1 1-1c.56 0 1 .45 1 1zm-3.98 0c0 .55-.44 1-1 1-.55 0-1-.45-1-1s.45-1 1-1c.56 0 1 .45 1 1zm-3.98 0c0 .55-.45 1-1 1s-1-.45-1-1 .45-1 1-1 1 .45 1 1zm-4 0c0 .55-.43 1-1 1-.54 0-1-.45-1-1s.46-1 1-1c.57 0 1 .45 1 1zm-3.97 0c0 .55-.45 1-1 1s-1-.45-1-1 .45-1 1-1 1 .45 1 1zm-4 0c0 .55-.43 1-1 1-.54 0-1-.45-1-1s.46-1 1-1c.57 0 1 .45 1 1zm-3.97 0c0 .55-.45 1-1 1s-1-.45-1-1 .45-1 1-1 1 .45 1 1zm-3.98 0c0 .55-.45 1-1 1-.56 0-1-.45-1-1s.44-1 1-1c.55 0 1 .45 1 1zm-4 0c0 .55-.44 1-1 1-.54 0-1-.45-1-1s.46-1 1-1c.56 0 1 .45 1 1zm-3.97 0c0 .55-.45 1-1 1-.56 0-1-.45-1-1s.44-1 1-1c.55 0 1 .45 1 1zm-4 0c0 .55-.44 1-1 1-.54 0-1-.45-1-1s.46-1 1-1c.56 0 1 .45 1 1zm-3.97 0c0 .55-.45 1-1 1-.56 0-1-.45-1-1s.44-1 1-1c.55 0 1 .45 1 1zm-4 0c0 .55-.44 1-1 1-.54 0-1-.45-1-1s.46-1 1-1c.56 0 1 .45 1 1zm-3.97 0c0 .55-.44 1-1 1-.54 0-1-.45-1-1s.46-1 1-1c.56 0 1 .45 1 1zm-3.98 0c0 .55-.44 1-1 1-.55 0-1-.45-1-1s.45-1 1-1c.56 0 1 .45 1 1zm-3.98 0c0 .55-.45 1-1 1s-1-.45-1-1 .45-1 1-1 1 .45 1 1zm-4 0c0 .55-.43 1-1 1-.54 0-1-.45-1-1s.46-1 1-1c.57 0 1 .45 1 1zm-3.97 0c0 .55-.45 1-1 1s-1-.45-1-1 .45-1 1-1 1 .45 1 1zm-4 0c0 .55-.43 1-1 1-.54 0-1-.45-1-1s.46-1 1-1c.57 0 1 .45 1 1zm-3.97 0c0 .55-.45 1-1 1s-1-.45-1-1 .45-1 1-1 1 .45 1 1zm-3.98 0c0 .55-.45 1-1 1-.56 0-1-.45-1-1s.44-1 1-1c.55 0 1 .45 1 1zm-4 0c0 .55-.44 1-1 1-.54 0-1-.45-1-1s.46-1 1-1c.56 0 1 .45 1 1zm-3.97 0c0 .55-.45 1-1 1-.56 0-1-.45-1-1s.44-1 1-1c.55 0 1 .45 1 1zm-4 0c0 .55-.44 1-1 1-.54 0-1-.45-1-1s.46-1 1-1c.56 0 1 .45 1 1zm-3.97 0c0 .55-.45 1-1 1-.56 0-1-.45-1-1s.44-1 1-1c.55 0 1 .45 1 1zm-4 0c0 .55-.44 1-1 1-.54 0-1-.45-1-1s.46-1 1-1c.56 0 1 .45 1 1zm-3.97 0c0 .55-.44 1-1 1-.54 0-1-.45-1-1s.46-1 1-1c.56 0 1 .45 1 1zm-3.98 0c0 .55-.44 1-1 1-.55 0-1-.45-1-1s.45-1 1-1c.56 0 1 .45 1 1zm-3.98 0c0 .55-.45 1-1 1s-1-.45-1-1 .45-1 1-1 1 .45 1 1zm-4 0c0 .55-.43 1-1 1-.54 0-1-.45-1-1s.46-1 1-1c.57 0 1 .45 1 1zm-3.97 0c0 .55-.45 1-1 1s-1-.45-1-1 .45-1 1-1 1 .45 1 1zm-4 0c0 .55-.43 1-1 1-.54 0-1-.45-1-1s.46-1 1-1c.57 0 1 .45 1 1zm-3.97 0c0 .55-.45 1-1 1s-1-.45-1-1 .45-1 1-1 1 .45 1 1zm-3.98 0c0 .55-.45 1-1 1-.56 0-1-.45-1-1s.44-1 1-1c.55 0 1 .45 1 1zm-4 0c0 .55-.44 1-1 1-.54 0-1-.45-1-1s.46-1 1-1c.56 0 1 .45 1 1zm-3.97 0c0 .55-.45 1-1 1-.56 0-1-.45-1-1s.44-1 1-1c.55 0 1 .45 1 1zm-4 0c0 .55-.44 1-1 1-.54 0-1-.45-1-1s.46-1 1-1c.56 0 1 .45 1 1zm-3.97 0c0 .55-.45 1-1 1-.56 0-1-.45-1-1s.44-1 1-1c.55 0 1 .45 1 1zm-4 0c0 .55-.44 1-1 1-.54 0-1-.45-1-1s.46-1 1-1c.56 0 1 .45 1 1zm-3.97 0c0 .55-.44 1-1 1-.54 0-1-.45-1-1s.46-1 1-1c.56 0 1 .45 1 1zm-3.98 0c0 .55-.44 1-1 1-.55 0-1-.45-1-1s.45-1 1-1c.56 0 1 .45 1 1zm-3.98 0c0 .55-.45 1-1 1s-1-.45-1-1 .45-1 1-1 1 .45 1 1zm-4 0c0 .55-.43 1-1 1-.54 0-1-.45-1-1s.46-1 1-1c.57 0 1 .45 1 1zm-3.97 0c0 .55-.45 1-1 1s-1-.45-1-1 .45-1 1-1 1 .45 1 1zm-4 0c0 .55-.43 1-1 1-.54 0-1-.45-1-1s.46-1 1-1c.57 0 1 .45 1 1zm-3.97 0c0 .55-.45 1-1 1s-1-.45-1-1 .45-1 1-1 1 .45 1 1zm-3.98 0c0 .55-.45 1-1 1-.56 0-1-.45-1-1s.44-1 1-1c.55 0 1 .45 1 1zm-4 0c0 .55-.44 1-1 1-.54 0-1-.45-1-1s.46-1 1-1c.56 0 1 .45 1 1zm-3.97 0c0 .55-.45 1-1 1-.56 0-1-.45-1-1s.44-1 1-1c.55 0 1 .45 1 1zm-4 0c0 .55-.44 1-1 1-.54 0-1-.45-1-1s.46-1 1-1c.56 0 1 .45 1 1zm-3.97 0c0 .55-.45 1-1 1-.56 0-1-.45-1-1s.44-1 1-1c.55 0 1 .45 1 1zm-4 0c0 .55-.44 1-1 1-.54 0-1-.45-1-1s.46-1 1-1c.56 0 1 .45 1 1zm-3.97 0c0 .55-.44 1-1 1-.54 0-1-.45-1-1s.46-1 1-1c.56 0 1 .45 1 1zm-3.98 0c0 .55-.44 1-1 1-.55 0-1-.45-1-1s.45-1 1-1c.56 0 1 .45 1 1zm-3.98 0c0 .55-.45 1-1 1s-1-.45-1-1 .45-1 1-1 1 .45 1 1zm-4 0c0 .55-.43 1-1 1-.54 0-1-.45-1-1s.46-1 1-1c.57 0 1 .45 1 1zm-3.97 0c0 .55-.45 1-1 1s-1-.45-1-1 .45-1 1-1 1 .45 1 1zm-4 0c0 .55-.43 1-1 1-.54 0-1-.45-1-1s.46-1 1-1c.57 0 1 .45 1 1zm-3.97 0c0 .55-.45 1-1 1s-1-.45-1-1 .45-1 1-1 1 .45 1 1zm-4.1-1.9c0 .56-.45 1-1 1-.56 0-1-.44-1-1 0-.55.44-1 1-1 .55 0 1 .45 1 1zm-1.9-4.1c0 .55-.45 1-1 1s-1-.45-1-1 .45-1 1-1 1 .45 1 1zm0-4c0 .56-.45 1-1 1s-1-.44-1-1c0-.54.45-1 1-1s1 .46 1 1zm0-3.98c0 .55-.45 1-1 1s-1-.45-1-1 .45-1 1-1 1 .45 1 1zm0-4c0 .56-.45 1-1 1s-1-.44-1-1c0-.54.45-1 1-1s1 .46 1 1zm0-3.98c0 .55-.45 1-1 1s-1-.45-1-1 .45-1 1-1 1 .45 1 1zm0-4c0 .57-.45 1-1 1s-1-.43-1-1c0-.54.45-1 1-1s1 .46 1 1zm0-3.98c0 .56-.45 1-1 1s-1-.44-1-1c0-.55.45-1 1-1s1 .45 1 1zm0-3.98c0 .55-.45 1-1 1s-1-.45-1-1c0-.56.45-1 1-1s1 .44 1 1zm0-4c0 .56-.45 1-1 1s-1-.44-1-1c0-.55.45-1 1-1s1 .45 1 1zm0-3.98c0 .55-.45 1-1 1s-1-.45-1-1 .45-1 1-1 1 .45 1 1zm0-4c0 .56-.45 1-1 1s-1-.44-1-1c0-.54.45-1 1-1s1 .46 1 1zm0-3.98c0 .55-.45 1-1 1s-1-.45-1-1 .45-1 1-1 1 .45 1 1zm0-4c0 .56-.45 1-1 1s-1-.44-1-1c0-.54.45-1 1-1s1 .46 1 1zm0-3.98c0 .55-.45 1-1 1s-1-.45-1-1 .45-1 1-1 1 .45 1 1zm0-4c0 .57-.45 1-1 1s-1-.43-1-1c0-.54.45-1 1-1s1 .46 1 1zm0-3.98c0 .56-.45 1-1 1s-1-.44-1-1c0-.55.45-1 1-1s1 .45 1 1zm0-3.98c0 .55-.45 1-1 1s-1-.45-1-1c0-.56.45-1 1-1s1 .44 1 1zm0-4c0 .56-.45 1-1 1s-1-.44-1-1c0-.55.45-1 1-1s1 .45 1 1zm0-3.98c0 .55-.45 1-1 1s-1-.45-1-1 .45-1 1-1 1 .45 1 1zm0-4c0 .56-.45 1-1 1s-1-.44-1-1c0-.54.45-1 1-1s1 .46 1 1zm0-3.98c0 .55-.45 1-1 1s-1-.45-1-1 .45-1 1-1 1 .45 1 1zm0-4c0 .56-.45 1-1 1s-1-.44-1-1c0-.54.45-1 1-1s1 .46 1 1zm0-3.98c0 .55-.45 1-1 1s-1-.45-1-1 .45-1 1-1 1 .45 1 1zm0-4c0 .57-.45 1-1 1s-1-.43-1-1c0-.54.45-1 1-1s1 .46 1 1zm0-3.98c0 .56-.45 1-1 1s-1-.44-1-1c0-.55.45-1 1-1s1 .45 1 1zm0-4c0 .57-.45 1-1 1s-1-.43-1-1c0-.54.45-1 1-1s1 .46 1 1zm0-3.97c0 .56-.45 1-1 1s-1-.44-1-1c0-.55.45-1 1-1s1 .45 1 1zm0-3.98c0 .55-.45 1-1 1s-1-.45-1-1c0-.56.45-1 1-1s1 .44 1 1zm0-4c0 .56-.45 1-1 1s-1-.44-1-1c0-.54.45-1 1-1s1 .46 1 1zm0-3.98c0 .55-.45 1-1 1s-1-.45-1-1 .45-1 1-1 1 .45 1 1zm0-4c0 .56-.45 1-1 1s-1-.44-1-1c0-.54.45-1 1-1s1 .46 1 1zm0-3.98c0 .55-.45 1-1 1s-1-.45-1-1 .45-1 1-1 1 .45 1 1zm0-4c0 .56-.45 1-1 1s-1-.44-1-1c0-.54.45-1 1-1s1 .46 1 1zm0-3.98c0 .56-.45 1-1 1s-1-.44-1-1c0-.55.45-1 1-1s1 .45 1 1zm0-4c0 .57-.45 1-1 1s-1-.43-1-1c0-.54.45-1 1-1s1 .46 1 1zm0-3.97c0 .56-.45 1-1 1s-1-.44-1-1c0-.55.45-1 1-1s1 .45 1 1zm0-3.98c0 .55-.45 1-1 1s-1-.45-1-1c0-.56.45-1 1-1s1 .44 1 1zm0-4c0 .56-.45 1-1 1s-1-.44-1-1c0-.54.45-1 1-1s1 .46 1 1zm0-3.98c0 .55-.45 1-1 1s-1-.45-1-1 .45-1 1-1 1 .45 1 1zm0-4c0 .56-.45 1-1 1s-1-.44-1-1c0-.54.45-1 1-1s1 .46 1 1zm0-3.98c0 .55-.45 1-1 1s-1-.45-1-1 .45-1 1-1 1 .45 1 1zm0-4c0 .56-.45 1-1 1s-1-.44-1-1c0-.54.45-1 1-1s1 .46 1 1zm0-3.98c0 .56-.45 1-1 1s-1-.44-1-1c0-.55.45-1 1-1s1 .45 1 1zm0-4c0 .57-.45 1-1 1s-1-.43-1-1c0-.54.45-1 1-1s1 .46 1 1zm0-3.97c0 .56-.45 1-1 1s-1-.44-1-1c0-.55.45-1 1-1s1 .45 1 1zm0-3.98c0 .55-.45 1-1 1s-1-.45-1-1c0-.56.45-1 1-1s1 .44 1 1zm0-4c0 .56-.45 1-1 1s-1-.44-1-1c0-.54.45-1 1-1s1 .46 1 1zm0-3.98c0 .55-.45 1-1 1s-1-.45-1-1 .45-1 1-1 1 .45 1 1zm0-4c0 .56-.45 1-1 1s-1-.44-1-1c0-.54.45-1 1-1s1 .46 1 1zm0-3.98c0 .55-.45 1-1 1s-1-.45-1-1 .45-1 1-1 1 .45 1 1zm0-4c0 .56-.45 1-1 1s-1-.44-1-1c0-.54.45-1 1-1s1 .46 1 1zm0-3.98c0 .56-.45 1-1 1s-1-.44-1-1c0-.55.45-1 1-1s1 .45 1 1zm0-4c0 .57-.45 1-1 1s-1-.43-1-1c0-.54.45-1 1-1s1 .46 1 1zm0-3.97c0 .56-.45 1-1 1s-1-.44-1-1c0-.55.45-1 1-1s1 .45 1 1zm0-3.98c0 .55-.45 1-1 1s-1-.45-1-1c0-.56.45-1 1-1s1 .44 1 1zm0-4c0 .56-.45 1-1 1s-1-.44-1-1c0-.55.45-1 1-1s1 .45 1 1zm0-3.98c0 .55-.45 1-1 1s-1-.45-1-1 .45-1 1-1 1 .45 1 1zm0-4c0 .56-.45 1-1 1s-1-.44-1-1c0-.54.45-1 1-1s1 .46 1 1zm0-3.98c0 .55-.45 1-1 1s-1-.45-1-1 .45-1 1-1 1 .45 1 1zm0-4c0 .56-.45 1-1 1s-1-.44-1-1c0-.54.45-1 1-1s1 .46 1 1zm0-3.98c0 .55-.45 1-1 1s-1-.45-1-1 .45-1 1-1 1 .45 1 1zm0-4c0 .57-.45 1-1 1s-1-.43-1-1c0-.54.45-1 1-1s1 .46 1 1zm0-3.98c0 .56-.45 1-1 1s-1-.44-1-1c0-.55.45-1 1-1s1 .45 1 1zm0-3.98c0 .55-.45 1-1 1s-1-.45-1-1c0-.56.45-1 1-1s1 .44 1 1zm0-4c0 .56-.45 1-1 1s-1-.44-1-1c0-.55.45-1 1-1s1 .45 1 1zm0-3.98c0 .55-.45 1-1 1s-1-.45-1-1 .45-1 1-1 1 .45 1 1zm0-4c0 .56-.45 1-1 1s-1-.44-1-1c0-.54.45-1 1-1s1 .46 1 1zm0-3.98c0 .55-.45 1-1 1s-1-.45-1-1 .45-1 1-1 1 .45 1 1zm0-4c0 .56-.45 1-1 1s-1-.44-1-1c0-.54.45-1 1-1s1 .46 1 1zm0-3.98c0 .55-.45 1-1 1s-1-.45-1-1 .45-1 1-1 1 .45 1 1zm0-4c0 .57-.45 1-1 1s-1-.43-1-1c0-.54.45-1 1-1s1 .46 1 1zm0-3.98c0 .56-.45 1-1 1s-1-.44-1-1c0-.55.45-1 1-1s1 .45 1 1zm0-3.98c0 .55-.45 1-1 1s-1-.45-1-1c0-.56.45-1 1-1s1 .44 1 1zm0-4c0 .56-.45 1-1 1s-1-.44-1-1c0-.55.45-1 1-1s1 .45 1 1zm0-3.98c0 .55-.45 1-1 1s-1-.45-1-1 .45-1 1-1 1 .45 1 1zm0-4c0 .56-.45 1-1 1s-1-.44-1-1c0-.54.45-1 1-1s1 .46 1 1zm0-3.98c0 .55-.45 1-1 1s-1-.45-1-1 .45-1 1-1 1 .45 1 1zm0-4c0 .56-.45 1-1 1s-1-.44-1-1c0-.54.45-1 1-1s1 .46 1 1zm0-3.98c0 .55-.45 1-1 1s-1-.45-1-1 .45-1 1-1 1 .45 1 1zm0-4c0 .57-.45 1-1 1s-1-.43-1-1c0-.54.45-1 1-1s1 .46 1 1zm0-3.98c0 .56-.45 1-1 1s-1-.44-1-1c0-.55.45-1 1-1s1 .45 1 1zm0-3.98c0 .55-.45 1-1 1s-1-.45-1-1c0-.56.45-1 1-1s1 .44 1 1zm0-4c0 .56-.45 1-1 1s-1-.44-1-1c0-.55.45-1 1-1s1 .45 1 1zm0-3.98c0 .55-.45 1-1 1s-1-.45-1-1c0-.56.45-1 1-1s1 .44 1 1zm0-4c0 .56-.45 1-1 1s-1-.44-1-1c0-.54.45-1 1-1s1 .46 1 1zm0-3.98c0 .55-.45 1-1 1s-1-.45-1-1 .45-1 1-1 1 .45 1 1zm0-4c0 .56-.45 1-1 1s-1-.44-1-1c0-.54.45-1 1-1s1 .46 1 1zm0-3.98c0 .55-.45 1-1 1s-1-.45-1-1 .45-1 1-1 1 .45 1 1zm0-4c0 .56-.45 1-1 1s-1-.44-1-1c0-.54.45-1 1-1s1 .46 1 1zm0-3.98c0 .56-.45 1-1 1s-1-.44-1-1c0-.55.45-1 1-1s1 .45 1 1zm0-4c0 .57-.45 1-1 1s-1-.43-1-1c0-.54.45-1 1-1s1 .46 1 1zm0-3.97c0 .55-.45 1-1 1s-1-.45-1-1c0-.56.45-1 1-1s1 .44 1 1zm0-4c0 .56-.45 1-1 1s-1-.44-1-1c0-.55.45-1 1-1s1 .45 1 1zm0-3.98c0 .55-.45 1-1 1s-1-.45-1-1 .45-1 1-1 1 .45 1 1zm0-4c0 .56-.45 1-1 1s-1-.44-1-1c0-.54.45-1 1-1s1 .46 1 1zm0-3.98c0 .55-.45 1-1 1s-1-.45-1-1 .45-1 1-1 1 .45 1 1zm0-4c0 .56-.45 1-1 1s-1-.44-1-1c0-.54.45-1 1-1s1 .46 1 1zm0-3.98c0 .54-.45 1-1 1s-1-.46-1-1c0-.56.45-1 1-1s1 .44 1 1z" fill="#5e5e5e"/><path d="M806 985.32h-1.03v-2H806z" fill="#5e5e5e"/><path d="M540 572.14l4.64 14.26h-9.28z" stroke="#5e5e5e" stroke-width="2" fill="#5e5e5e"/><path d="M922 984.32c0 .55-.45 1-1 1s-1-.45-1-1 .45-1 1-1 1 .45 1 1zm4.02 0c0 .55-.45 1-1 1-.56 0-1-.45-1-1s.44-1 1-1c.55 0 1 .45 1 1zm4 0c0 .55-.44 1-1 1-.54 0-1-.45-1-1s.46-1 1-1c.56 0 1 .45 1 1zm4.03 0c0 .55-.45 1-1 1s-1-.45-1-1 .45-1 1-1 1 .45 1 1zm4 0c0 .55-.43 1-1 1-.54 0-1-.45-1-1s.46-1 1-1c.57 0 1 .45 1 1zm4.03 0c0 .55-.45 1-1 1s-1-.45-1-1 .45-1 1-1 1 .45 1 1zm4.02 0c0 .55-.45 1-1 1-.56 0-1-.45-1-1s.44-1 1-1c.55 0 1 .45 1 1zm4 0c0 .55-.44 1-1 1-.54 0-1-.45-1-1s.46-1 1-1c.56 0 1 .45 1 1zm4.03 0c0 .55-.45 1-1 1-.56 0-1-.45-1-1s.44-1 1-1c.55 0 1 .45 1 1zm4 0c0 .55-.43 1-1 1-.54 0-1-.45-1-1s.46-1 1-1c.57 0 1 .45 1 1zm4.03 0c0 .55-.45 1-1 1s-1-.45-1-1 .45-1 1-1 1 .45 1 1zm4 0c0 .55-.43 1-1 1-.54 0-1-.45-1-1s.46-1 1-1c.57 0 1 .45 1 1zm4.03 0c0 .55-.46 1-1 1-.56 0-1-.45-1-1s.44-1 1-1c.54 0 1 .45 1 1zm4 0c0 .55-.44 1-1 1-.55 0-1-.45-1-1s.45-1 1-1c.56 0 1 .45 1 1zm4.02 0c0 .55-.45 1-1 1s-1-.45-1-1 .45-1 1-1 1 .45 1 1zm4.02 0c0 .55-.45 1-1 1s-1-.45-1-1 .45-1 1-1 1 .45 1 1zm4 0c0 .55-.43 1-1 1-.54 0-1-.45-1-1s.46-1 1-1c.57 0 1 .45 1 1zm4.03 0c0 .55-.45 1-1 1s-1-.45-1-1 .45-1 1-1 1 .45 1 1zm4.02 0c0 .55-.46 1-1 1-.57 0-1-.45-1-1s.43-1 1-1c.54 0 1 .45 1 1zm4 0c0 .55-.45 1-1 1s-1-.45-1-1 .45-1 1-1 1 .45 1 1zm4.02 0c0 .55-.45 1-1 1s-1-.45-1-1 .45-1 1-1 1 .45 1 1zm4 0c0 .55-.43 1-1 1-.54 0-1-.45-1-1s.46-1 1-1c.57 0 1 .45 1 1zm4.03 0c0 .55-.45 1-1 1s-1-.45-1-1 .45-1 1-1 1 .45 1 1zm4.02 0c0 .55-.45 1-1 1-.56 0-1-.45-1-1s.44-1 1-1c.55 0 1 .45 1 1zm4 0c0 .55-.44 1-1 1-.54 0-1-.45-1-1s.46-1 1-1c.56 0 1 .45 1 1zm4.03 0c0 .55-.45 1-1 1-.56 0-1-.45-1-1s.44-1 1-1c.55 0 1 .45 1 1zm4 0c0 .55-.44 1-1 1-.54 0-1-.45-1-1s.46-1 1-1c.56 0 1 .45 1 1zm4.03 0c0 .55-.45 1-1 1s-1-.45-1-1 .45-1 1-1 1 .45 1 1zm4 0c0 .55-.43 1-1 1-.54 0-1-.45-1-1s.46-1 1-1c.57 0 1 .45 1 1zm4.03 0c0 .55-.45 1-1 1s-1-.45-1-1 .45-1 1-1 1 .45 1 1zm4.02 0c0 .55-.45 1-1 1-.56 0-1-.45-1-1s.44-1 1-1c.55 0 1 .45 1 1zm4 0c0 .55-.44 1-1 1-.54 0-1-.45-1-1s.46-1 1-1c.56 0 1 .45 1 1zm4.03 0c0 .55-.44 1-1 1-.54 0-1-.45-1-1s.46-1 1-1c.56 0 1 .45 1 1zm4.02 0c0 .55-.44 1-1 1-.55 0-1-.45-1-1s.45-1 1-1c.56 0 1 .45 1 1zm4.02 0c0 .55-.45 1-1 1s-1-.45-1-1 .45-1 1-1 1 .45 1 1zm4.02 0c0 .55-.45 1-1 1-.56 0-1-.45-1-1s.44-1 1-1c.55 0 1 .45 1 1zm4 0c0 .55-.44 1-1 1-.54 0-1-.45-1-1s.46-1 1-1c.56 0 1 .45 1 1zm4.03 0c0 .55-.46 1-1 1-.56 0-1-.45-1-1s.44-1 1-1c.54 0 1 .45 1 1zm4 0c0 .55-.44 1-1 1-.55 0-1-.45-1-1s.45-1 1-1c.56 0 1 .45 1 1zm4.02 0c0 .55-.45 1-1 1s-1-.45-1-1 .45-1 1-1 1 .45 1 1zm4 0c0 .55-.43 1-1 1-.54 0-1-.45-1-1s.46-1 1-1c.57 0 1 .45 1 1zm4.03 0c0 .55-.45 1-1 1s-1-.45-1-1 .45-1 1-1 1 .45 1 1zm4.02 0c0 .55-.45 1-1 1-.56 0-1-.45-1-1s.44-1 1-1c.55 0 1 .45 1 1zm4 0c0 .55-.44 1-1 1-.54 0-1-.45-1-1s.46-1 1-1c.56 0 1 .45 1 1zm4.03 0c0 .55-.45 1-1 1s-1-.45-1-1 .45-1 1-1 1 .45 1 1zm4 0c0 .55-.43 1-1 1-.54 0-1-.45-1-1s.46-1 1-1c.57 0 1 .45 1 1zm4.03 0c0 .55-.45 1-1 1s-1-.45-1-1 .45-1 1-1 1 .45 1 1zm4.02 0c0 .55-.45 1-1 1-.56 0-1-.45-1-1s.44-1 1-1c.55 0 1 .45 1 1zm4 0c0 .55-.44 1-1 1-.54 0-1-.45-1-1s.46-1 1-1c.56 0 1 .45 1 1zm4.03 0c0 .55-.45 1-1 1s-1-.45-1-1 .45-1 1-1 1 .45 1 1zm4 0c0 .55-.43 1-1 1-.54 0-1-.45-1-1s.46-1 1-1c.57 0 1 .45 1 1zm4.03 0c0 .55-.44 1-1 1-.54 0-1-.45-1-1s.46-1 1-1c.56 0 1 .45 1 1zm4.03 0c0 .55-.45 1-1 1-.56 0-1-.45-1-1s.44-1 1-1c.55 0 1 .45 1 1zm4 0c0 .55-.44 1-1 1-.54 0-1-.45-1-1s.46-1 1-1c.56 0 1 .45 1 1zm4.03 0c0 .55-.45 1-1 1-.56 0-1-.45-1-1s.44-1 1-1c.55 0 1 .45 1 1zm4 0c0 .55-.43 1-1 1-.54 0-1-.45-1-1s.46-1 1-1c.57 0 1 .45 1 1zm4.03 0c0 .55-.46 1-1 1-.56 0-1-.45-1-1s.44-1 1-1c.54 0 1 .45 1 1zm4 0c0 .55-.44 1-1 1-.55 0-1-.45-1-1s.45-1 1-1c.56 0 1 .45 1 1zm4.02 0c0 .55-.45 1-1 1s-1-.45-1-1 .45-1 1-1 1 .45 1 1zm4.02 0c0 .55-.45 1-1 1-.56 0-1-.45-1-1s.44-1 1-1c.55 0 1 .45 1 1zm4 0c0 .55-.44 1-1 1-.54 0-1-.45-1-1s.46-1 1-1c.56 0 1 .45 1 1zm4.03 0c0 .55-.45 1-1 1s-1-.45-1-1 .45-1 1-1 1 .45 1 1zm4 0c0 .55-.43 1-1 1-.54 0-1-.45-1-1s.46-1 1-1c.57 0 1 .45 1 1zm4.03 0c0 .55-.45 1-1 1s-1-.45-1-1 .45-1 1-1 1 .45 1 1zm4.1-1.9c0 .56-.44 1-1 1-.55 0-1-.44-1-1 0-.55.45-1 1-1 .56 0 1 .45 1 1zm1.9-4.1c0 .55-.45 1-1 1s-1-.45-1-1 .45-1 1-1 1 .45 1 1zm0-4c0 .56-.45 1-1 1s-1-.44-1-1c0-.54.45-1 1-1s1 .46 1 1zm0-3.98c0 .55-.45 1-1 1s-1-.45-1-1 .45-1 1-1 1 .45 1 1zm0-4c0 .56-.45 1-1 1s-1-.44-1-1c0-.54.45-1 1-1s1 .46 1 1zm0-3.98c0 .55-.45 1-1 1s-1-.45-1-1 .45-1 1-1 1 .45 1 1zm0-4c0 .57-.45 1-1 1s-1-.43-1-1c0-.54.45-1 1-1s1 .46 1 1zm0-3.98c0 .56-.45 1-1 1s-1-.44-1-1c0-.55.45-1 1-1s1 .45 1 1zm0-3.98c0 .55-.45 1-1 1s-1-.45-1-1c0-.56.45-1 1-1s1 .44 1 1zm0-4c0 .56-.45 1-1 1s-1-.44-1-1c0-.55.45-1 1-1s1 .45 1 1zm0-3.98c0 .55-.45 1-1 1s-1-.45-1-1 .45-1 1-1 1 .45 1 1zm0-4c0 .56-.45 1-1 1s-1-.44-1-1c0-.54.45-1 1-1s1 .46 1 1zm0-3.98c0 .55-.45 1-1 1s-1-.45-1-1 .45-1 1-1 1 .45 1 1zm0-4c0 .56-.45 1-1 1s-1-.44-1-1c0-.54.45-1 1-1s1 .46 1 1zm0-3.98c0 .55-.45 1-1 1s-1-.45-1-1 .45-1 1-1 1 .45 1 1zm0-4c0 .57-.45 1-1 1s-1-.43-1-1c0-.54.45-1 1-1s1 .46 1 1zm0-3.98c0 .56-.45 1-1 1s-1-.44-1-1c0-.55.45-1 1-1s1 .45 1 1zm0-3.98c0 .55-.45 1-1 1s-1-.45-1-1c0-.56.45-1 1-1s1 .44 1 1zm0-4c0 .56-.45 1-1 1s-1-.44-1-1c0-.55.45-1 1-1s1 .45 1 1zm0-3.98c0 .55-.45 1-1 1s-1-.45-1-1 .45-1 1-1 1 .45 1 1zm0-4c0 .56-.45 1-1 1s-1-.44-1-1c0-.54.45-1 1-1s1 .46 1 1zm0-3.98c0 .55-.45 1-1 1s-1-.45-1-1 .45-1 1-1 1 .45 1 1zm0-4c0 .56-.45 1-1 1s-1-.44-1-1c0-.54.45-1 1-1s1 .46 1 1zm0-3.98c0 .55-.45 1-1 1s-1-.45-1-1 .45-1 1-1 1 .45 1 1zm0-4c0 .57-.45 1-1 1s-1-.43-1-1c0-.54.45-1 1-1s1 .46 1 1zm0-3.98c0 .56-.45 1-1 1s-1-.44-1-1c0-.55.45-1 1-1s1 .45 1 1zm0-4c0 .57-.45 1-1 1s-1-.43-1-1c0-.54.45-1 1-1s1 .46 1 1zm0-3.97c0 .56-.45 1-1 1s-1-.44-1-1c0-.55.45-1 1-1s1 .45 1 1zm0-3.98c0 .55-.45 1-1 1s-1-.45-1-1c0-.56.45-1 1-1s1 .44 1 1zm0-4c0 .56-.45 1-1 1s-1-.44-1-1c0-.54.45-1 1-1s1 .46 1 1zm0-3.98c0 .55-.45 1-1 1s-1-.45-1-1 .45-1 1-1 1 .45 1 1zm0-4c0 .56-.45 1-1 1s-1-.44-1-1c0-.54.45-1 1-1s1 .46 1 1zm0-3.98c0 .55-.45 1-1 1s-1-.45-1-1 .45-1 1-1 1 .45 1 1zm0-4c0 .56-.45 1-1 1s-1-.44-1-1c0-.54.45-1 1-1s1 .46 1 1zm0-3.98c0 .56-.45 1-1 1s-1-.44-1-1c0-.55.45-1 1-1s1 .45 1 1zm0-4c0 .57-.45 1-1 1s-1-.43-1-1c0-.54.45-1 1-1s1 .46 1 1zm0-3.97c0 .56-.45 1-1 1s-1-.44-1-1c0-.55.45-1 1-1s1 .45 1 1zm0-3.98c0 .55-.45 1-1 1s-1-.45-1-1c0-.56.45-1 1-1s1 .44 1 1zm0-4c0 .56-.45 1-1 1s-1-.44-1-1c0-.54.45-1 1-1s1 .46 1 1zm0-3.98c0 .55-.45 1-1 1s-1-.45-1-1 .45-1 1-1 1 .45 1 1zm0-4c0 .56-.45 1-1 1s-1-.44-1-1c0-.54.45-1 1-1s1 .46 1 1zm0-3.98c0 .55-.45 1-1 1s-1-.45-1-1 .45-1 1-1 1 .45 1 1zm0-4c0 .56-.45 1-1 1s-1-.44-1-1c0-.54.45-1 1-1s1 .46 1 1zm0-3.98c0 .56-.45 1-1 1s-1-.44-1-1c0-.55.45-1 1-1s1 .45 1 1zm0-4c0 .57-.45 1-1 1s-1-.43-1-1c0-.54.45-1 1-1s1 .46 1 1zm0-3.97c0 .56-.45 1-1 1s-1-.44-1-1c0-.55.45-1 1-1s1 .45 1 1zm0-3.98c0 .55-.45 1-1 1s-1-.45-1-1c0-.56.45-1 1-1s1 .44 1 1zm0-4c0 .56-.45 1-1 1s-1-.44-1-1c0-.54.45-1 1-1s1 .46 1 1zm0-3.98c0 .55-.45 1-1 1s-1-.45-1-1 .45-1 1-1 1 .45 1 1zm0-4c0 .56-.45 1-1 1s-1-.44-1-1c0-.54.45-1 1-1s1 .46 1 1zm0-3.98c0 .55-.45 1-1 1s-1-.45-1-1 .45-1 1-1 1 .45 1 1zm0-4c0 .56-.45 1-1 1s-1-.44-1-1c0-.54.45-1 1-1s1 .46 1 1zm0-3.98c0 .56-.45 1-1 1s-1-.44-1-1c0-.55.45-1 1-1s1 .45 1 1zm0-4c0 .57-.45 1-1 1s-1-.43-1-1c0-.54.45-1 1-1s1 .46 1 1zm0-3.97c0 .56-.45 1-1 1s-1-.44-1-1c0-.55.45-1 1-1s1 .45 1 1zm0-3.98c0 .55-.45 1-1 1s-1-.45-1-1c0-.56.45-1 1-1s1 .44 1 1zm0-4c0 .56-.45 1-1 1s-1-.44-1-1c0-.55.45-1 1-1s1 .45 1 1zm0-3.98c0 .55-.45 1-1 1s-1-.45-1-1 .45-1 1-1 1 .45 1 1zm0-4c0 .56-.45 1-1 1s-1-.44-1-1c0-.54.45-1 1-1s1 .46 1 1zm0-3.98c0 .55-.45 1-1 1s-1-.45-1-1 .45-1 1-1 1 .45 1 1zm0-4c0 .56-.45 1-1 1s-1-.44-1-1c0-.54.45-1 1-1s1 .46 1 1zm0-3.98c0 .55-.45 1-1 1s-1-.45-1-1 .45-1 1-1 1 .45 1 1zm0-4c0 .57-.45 1-1 1s-1-.43-1-1c0-.54.45-1 1-1s1 .46 1 1zm0-3.98c0 .56-.45 1-1 1s-1-.44-1-1c0-.55.45-1 1-1s1 .45 1 1zm0-3.98c0 .55-.45 1-1 1s-1-.45-1-1c0-.56.45-1 1-1s1 .44 1 1zm0-4c0 .56-.45 1-1 1s-1-.44-1-1c0-.55.45-1 1-1s1 .45 1 1zm0-3.98c0 .55-.45 1-1 1s-1-.45-1-1 .45-1 1-1 1 .45 1 1zm0-4c0 .56-.45 1-1 1s-1-.44-1-1c0-.54.45-1 1-1s1 .46 1 1zm0-3.98c0 .55-.45 1-1 1s-1-.45-1-1 .45-1 1-1 1 .45 1 1zm0-4c0 .56-.45 1-1 1s-1-.44-1-1c0-.54.45-1 1-1s1 .46 1 1zm0-3.98c0 .55-.45 1-1 1s-1-.45-1-1 .45-1 1-1 1 .45 1 1zm0-4c0 .57-.45 1-1 1s-1-.43-1-1c0-.54.45-1 1-1s1 .46 1 1zm0-3.98c0 .56-.45 1-1 1s-1-.44-1-1c0-.55.45-1 1-1s1 .45 1 1zm0-3.98c0 .55-.45 1-1 1s-1-.45-1-1c0-.56.45-1 1-1s1 .44 1 1zm0-4c0 .56-.45 1-1 1s-1-.44-1-1c0-.55.45-1 1-1s1 .45 1 1zm0-3.98c0 .55-.45 1-1 1s-1-.45-1-1 .45-1 1-1 1 .45 1 1zm0-4c0 .56-.45 1-1 1s-1-.44-1-1c0-.54.45-1 1-1s1 .46 1 1zm0-3.98c0 .55-.45 1-1 1s-1-.45-1-1 .45-1 1-1 1 .45 1 1zm0-4c0 .56-.45 1-1 1s-1-.44-1-1c0-.54.45-1 1-1s1 .46 1 1zm0-3.98c0 .55-.45 1-1 1s-1-.45-1-1 .45-1 1-1 1 .45 1 1zm0-4c0 .57-.45 1-1 1s-1-.43-1-1c0-.54.45-1 1-1s1 .46 1 1zm0-3.98c0 .56-.45 1-1 1s-1-.44-1-1c0-.55.45-1 1-1s1 .45 1 1zm0-3.98c0 .55-.45 1-1 1s-1-.45-1-1c0-.56.45-1 1-1s1 .44 1 1zm0-4c0 .56-.45 1-1 1s-1-.44-1-1c0-.55.45-1 1-1s1 .45 1 1zm0-3.98c0 .55-.45 1-1 1s-1-.45-1-1c0-.56.45-1 1-1s1 .44 1 1zm0-4c0 .56-.45 1-1 1s-1-.44-1-1c0-.54.45-1 1-1s1 .46 1 1zm0-3.98c0 .55-.45 1-1 1s-1-.45-1-1 .45-1 1-1 1 .45 1 1zm0-4c0 .56-.45 1-1 1s-1-.44-1-1c0-.54.45-1 1-1s1 .46 1 1zm0-3.98c0 .55-.45 1-1 1s-1-.45-1-1 .45-1 1-1 1 .45 1 1zm0-4c0 .56-.45 1-1 1s-1-.44-1-1c0-.54.45-1 1-1s1 .46 1 1zm0-3.98c0 .56-.45 1-1 1s-1-.44-1-1c0-.55.45-1 1-1s1 .45 1 1zm0-4c0 .57-.45 1-1 1s-1-.43-1-1c0-.54.45-1 1-1s1 .46 1 1zm0-3.97c0 .55-.45 1-1 1s-1-.45-1-1c0-.56.45-1 1-1s1 .44 1 1zm0-4c0 .56-.45 1-1 1s-1-.44-1-1c0-.55.45-1 1-1s1 .45 1 1zm0-3.98c0 .55-.45 1-1 1s-1-.45-1-1 .45-1 1-1 1 .45 1 1zm0-4c0 .56-.45 1-1 1s-1-.44-1-1c0-.54.45-1 1-1s1 .46 1 1zm0-3.98c0 .55-.45 1-1 1s-1-.45-1-1 .45-1 1-1 1 .45 1 1zm0-4c0 .56-.45 1-1 1s-1-.44-1-1c0-.54.45-1 1-1s1 .46 1 1zm0-3.98c0 .54-.45 1-1 1s-1-.46-1-1c0-.56.45-1 1-1s1 .44 1 1z" fill="#5e5e5e"/><path d="M921.03 985.32H920v-2h1.03z" fill="#5e5e5e"/><path d="M1180 572.14l4.64 14.26h-9.28z" stroke="#5e5e5e" stroke-width="2" fill="#5e5e5e"/><path d="M863 919v-2.06m0-8.24v-4.12m0-8.24v-4.12m0-8.24v-4.12m0-8.24v-4.12m0-8.24v-4.12m0-8.24v-4.12m0-8.24v-4.12m0-8.25v-4.12m0-8.24v-4.1m0-8.25v-4.12m0-8.24v-4.13m0-8.24v-4.12m0-8.23v-4.12m0-8.24v-2.05l-.44-1.06-1.06-.45-1.06-.44-.44-1.05v-2m0-7.97v-4m0-7.97v-3.97m0-7.98v-4m0-7.97v-3.98m0-7.98v-4m0-7.97v-3.98m0-7.98v-4m0-7.98v-3.98m0-7.98v-4m0-7.97v-4m0-7.97v-4m0-7.97v-4m0-7.96v-2" stroke="#5e5e5e" stroke-width="2" fill="none"/><path d="M864 920h-2v-1.03h2z" fill="#5e5e5e"/><path d="M860 572.14l4.64 14.26h-9.28z" stroke="#5e5e5e" stroke-width="2" fill="#5e5e5e"/><defs><path fill="#333" d="M205 0l-28-72H64L36 0H1l101-248h38L239 0h-34zm-38-99l-47-123c-12 45-31 82-46 123h93" id="w"/><path fill="#333" d="M210-169c-67 3-38 105-44 169h-31v-121c0-29-5-50-35-48C34-165 62-65 56 0H25l-1-190h30c1 10-1 24 2 32 10-44 99-50 107 0 11-21 27-35 58-36 85-2 47 119 55 194h-31v-121c0-29-5-49-35-48" id="x"/><path fill="#333" d="M141-36C126-15 110 5 73 4 37 3 15-17 15-53c-1-64 63-63 125-63 3-35-9-54-41-54-24 1-41 7-42 31l-33-3c5-37 33-52 76-52 45 0 72 20 72 64v82c-1 20 7 32 28 27v20c-31 9-61-2-59-35zM48-53c0 20 12 33 32 33 41-3 63-29 60-74-43 2-92-5-92 41" id="y"/><path fill="#333" d="M9 0v-24l116-142H16v-24h144v24L44-24h123V0H9" id="z"/><path fill="#333" d="M100-194c62-1 85 37 85 99 1 63-27 99-86 99S16-35 15-95c0-66 28-99 85-99zM99-20c44 1 53-31 53-75 0-43-8-75-51-75s-53 32-53 75 10 74 51 75" id="A"/><path fill="#333" d="M117-194c89-4 53 116 60 194h-32v-121c0-31-8-49-39-48C34-167 62-67 57 0H25l-1-190h30c1 10-1 24 2 32 11-22 29-35 61-36" id="B"/><g id="a"><use transform="matrix(0.06172839506172839,0,0,0.06172839506172839,0,0)" xlink:href="#w"/><use transform="matrix(0.06172839506172839,0,0,0.06172839506172839,14.814814814814813,0)" xlink:href="#x"/><use transform="matrix(0.06172839506172839,0,0,0.06172839506172839,33.2716049382716,0)" xlink:href="#y"/><use transform="matrix(0.06172839506172839,0,0,0.06172839506172839,45.61728395061728,0)" xlink:href="#z"/><use transform="matrix(0.06172839506172839,0,0,0.06172839506172839,56.72839506172839,0)" xlink:href="#A"/><use transform="matrix(0.06172839506172839,0,0,0.06172839506172839,69.07407407407408,0)" xlink:href="#B"/></g><path fill="#333" d="M212-179c-10-28-35-45-73-45-59 0-87 40-87 99 0 60 29 101 89 101 43 0 62-24 78-52l27 14C228-24 195 4 139 4 59 4 22-46 18-125c-6-104 99-153 187-111 19 9 31 26 39 46" id="C"/><path fill="#333" d="M24 0v-261h32V0H24" id="D"/><path fill="#333" d="M84 4C-5 8 30-112 23-190h32v120c0 31 7 50 39 49 72-2 45-101 50-169h31l1 190h-30c-1-10 1-25-2-33-11 22-28 36-60 37" id="E"/><path fill="#333" d="M85-194c31 0 48 13 60 33l-1-100h32l1 261h-30c-2-10 0-23-3-31C134-8 116 4 85 4 32 4 16-35 15-94c0-66 23-100 70-100zm9 24c-40 0-46 34-46 75 0 40 6 74 45 74 42 0 51-32 51-76 0-42-9-74-50-73" id="F"/><path fill="#333" d="M63-220v92h138v28H63V0H30v-248h175v28H63" id="G"/><path fill="#333" d="M114-163C36-179 61-72 57 0H25l-1-190h30c1 12-1 29 2 39 6-27 23-49 58-41v29" id="H"/><path fill="#333" d="M59-47c-2 24 18 29 38 22v24C64 9 27 4 27-40v-127H5v-23h24l9-43h21v43h35v23H59v120" id="I"/><g id="b"><use transform="matrix(0.06172839506172839,0,0,0.06172839506172839,0,0)" xlink:href="#C"/><use transform="matrix(0.06172839506172839,0,0,0.06172839506172839,15.987654320987653,0)" xlink:href="#D"/><use transform="matrix(0.06172839506172839,0,0,0.06172839506172839,20.864197530864196,0)" xlink:href="#A"/><use transform="matrix(0.06172839506172839,0,0,0.06172839506172839,33.20987654320987,0)" xlink:href="#E"/><use transform="matrix(0.06172839506172839,0,0,0.06172839506172839,45.55555555555555,0)" xlink:href="#F"/><use transform="matrix(0.06172839506172839,0,0,0.06172839506172839,57.90123456790123,0)" xlink:href="#G"/><use transform="matrix(0.06172839506172839,0,0,0.06172839506172839,71.41975308641975,0)" xlink:href="#H"/><use transform="matrix(0.06172839506172839,0,0,0.06172839506172839,78.76543209876543,0)" xlink:href="#A"/><use transform="matrix(0.06172839506172839,0,0,0.06172839506172839,91.11111111111111,0)" xlink:href="#B"/><use transform="matrix(0.06172839506172839,0,0,0.06172839506172839,103.4567901234568,0)" xlink:href="#I"/></g><path fill="#333" d="M185-189c-5-48-123-54-124 2 14 75 158 14 163 119 3 78-121 87-175 55-17-10-28-26-33-46l33-7c5 56 141 63 141-1 0-78-155-14-162-118-5-82 145-84 179-34 5 7 8 16 11 25" id="J"/><path fill="#333" d="M126-127c33 6 58 20 58 59 0 88-139 92-164 29-3-8-5-16-6-25l32-3c6 27 21 44 54 44 32 0 52-15 52-46 0-38-36-46-79-43v-28c39 1 72-4 72-42 0-27-17-43-46-43-28 0-47 15-49 41l-32-3c6-42 35-63 81-64 48-1 79 21 79 65 0 36-21 52-52 59" id="K"/><g id="c"><use transform="matrix(0.06172839506172839,0,0,0.06172839506172839,0,0)" xlink:href="#J"/><use transform="matrix(0.06172839506172839,0,0,0.06172839506172839,14.814814814814813,0)" xlink:href="#K"/></g><path fill="#333" d="M30 0v-248h33v221h125V0H30" id="L"/><path fill="#333" d="M160-131c35 5 61 23 61 61C221 17 115-2 30 0v-248c76 3 177-17 177 60 0 33-19 50-47 57zm-97-11c50-1 110 9 110-42 0-47-63-36-110-37v79zm0 115c55-2 124 14 124-45 0-56-70-42-124-44v89" id="M"/><g id="d"><use transform="matrix(0.06172839506172839,0,0,0.06172839506172839,0,0)" xlink:href="#w"/><use transform="matrix(0.06172839506172839,0,0,0.06172839506172839,14.814814814814813,0)" xlink:href="#L"/><use transform="matrix(0.06172839506172839,0,0,0.06172839506172839,27.160493827160494,0)" xlink:href="#M"/></g><path fill="#333" d="M108 0H70L1-190h34L89-25l56-165h34" id="N"/><path fill="#333" d="M24-231v-30h32v30H24zM24 0v-190h32V0H24" id="O"/><path fill="#333" d="M115-194c53 0 69 39 70 98 0 66-23 100-70 100C84 3 66-7 56-30L54 0H23l1-261h32v101c10-23 28-34 59-34zm-8 174c40 0 45-34 45-75 0-40-5-75-45-74-42 0-51 32-51 76 0 43 10 73 51 73" id="P"/><path fill="#333" d="M179-190L93 31C79 59 56 82 12 73V49c39 6 53-20 64-50L1-190h34L92-34l54-156h33" id="Q"/><g id="f"><use transform="matrix(0.06172839506172839,0,0,0.06172839506172839,0,0)" xlink:href="#w"/><use transform="matrix(0.06172839506172839,0,0,0.06172839506172839,14.382716049382715,0)" xlink:href="#N"/><use transform="matrix(0.06172839506172839,0,0,0.06172839506172839,25.493827160493826,0)" xlink:href="#y"/><use transform="matrix(0.06172839506172839,0,0,0.06172839506172839,37.839506172839506,0)" xlink:href="#O"/><use transform="matrix(0.06172839506172839,0,0,0.06172839506172839,42.71604938271605,0)" xlink:href="#D"/><use transform="matrix(0.06172839506172839,0,0,0.06172839506172839,47.592592592592595,0)" xlink:href="#y"/><use transform="matrix(0.06172839506172839,0,0,0.06172839506172839,59.93827160493827,0)" xlink:href="#P"/><use transform="matrix(0.06172839506172839,0,0,0.06172839506172839,72.28395061728395,0)" xlink:href="#O"/><use transform="matrix(0.06172839506172839,0,0,0.06172839506172839,77.1604938271605,0)" xlink:href="#D"/><use transform="matrix(0.06172839506172839,0,0,0.06172839506172839,82.03703703703704,0)" xlink:href="#O"/><use transform="matrix(0.06172839506172839,0,0,0.06172839506172839,86.91358024691358,0)" xlink:href="#I"/><use transform="matrix(0.06172839506172839,0,0,0.06172839506172839,93.08641975308642,0)" xlink:href="#Q"/></g><path fill="#333" d="M209 0H11v-25l151-195H24v-28h176v25L50-27h159V0" id="R"/><path fill="#333" d="M100-194c63 0 86 42 84 106H49c0 40 14 67 53 68 26 1 43-12 49-29l28 8c-11 28-37 45-77 45C44 4 14-33 15-96c1-61 26-98 85-98zm52 81c6-60-76-77-97-28-3 7-6 17-6 28h103" id="S"/><g id="g"><use transform="matrix(0.06172839506172839,0,0,0.06172839506172839,0,0)" xlink:href="#R"/><use transform="matrix(0.06172839506172839,0,0,0.06172839506172839,13.518518518518517,0)" xlink:href="#A"/><use transform="matrix(0.06172839506172839,0,0,0.06172839506172839,25.864197530864196,0)" xlink:href="#B"/><use transform="matrix(0.06172839506172839,0,0,0.06172839506172839,38.20987654320987,0)" xlink:href="#S"/></g><path fill="#333" d="M158-156l-14 65h45v19h-49L124 0h-19l15-72H56L41 0H22l15-72H2v-19h39l14-65H11v-19h48l15-71h20l-16 71h64l16-71h19l-16 71h37v19h-40zm-83 0L61-91h63l14-65H75" id="T"/><path fill="#333" d="M27 0v-27h64v-190l-56 39v-29l58-41h29v221h61V0H27" id="U"/><g id="h"><use transform="matrix(0.06172839506172839,0,0,0.06172839506172839,0,0)" xlink:href="#T"/><use transform="matrix(0.06172839506172839,0,0,0.06172839506172839,12.345679012345679,0)" xlink:href="#U"/></g><path fill="#333" d="M30 0v-248h187v28H63v79h144v27H63v87h162V0H30" id="V"/><g id="i"><use transform="matrix(0.04320987654320987,0,0,0.04320987654320987,0,0)" xlink:href="#V"/><use transform="matrix(0.04320987654320987,0,0,0.04320987654320987,10.370370370370368,0)" xlink:href="#C"/><use transform="matrix(0.04320987654320987,0,0,0.04320987654320987,21.561728395061724,0)" xlink:href="#J"/></g><path fill="#333" d="M96-169c-40 0-48 33-48 73s9 75 48 75c24 0 41-14 43-38l32 2c-6 37-31 61-74 61-59 0-76-41-82-99-10-93 101-131 147-64 4 7 5 14 7 22l-32 3c-4-21-16-35-41-35" id="W"/><g id="j"><use transform="matrix(0.04320987654320987,0,0,0.04320987654320987,0,0)" xlink:href="#W"/><use transform="matrix(0.04320987654320987,0,0,0.04320987654320987,7.777777777777776,0)" xlink:href="#A"/><use transform="matrix(0.04320987654320987,0,0,0.04320987654320987,16.41975308641975,0)" xlink:href="#B"/><use transform="matrix(0.04320987654320987,0,0,0.04320987654320987,25.061728395061724,0)" xlink:href="#I"/><use transform="matrix(0.04320987654320987,0,0,0.04320987654320987,29.382716049382708,0)" xlink:href="#y"/><use transform="matrix(0.04320987654320987,0,0,0.04320987654320987,38.02469135802468,0)" xlink:href="#O"/><use transform="matrix(0.04320987654320987,0,0,0.04320987654320987,41.438271604938265,0)" xlink:href="#B"/><use transform="matrix(0.04320987654320987,0,0,0.04320987654320987,50.08024691358023,0)" xlink:href="#S"/><use transform="matrix(0.04320987654320987,0,0,0.04320987654320987,58.72222222222221,0)" xlink:href="#H"/></g><path fill="#333" d="M101-251c82-7 93 87 43 132L82-64C71-53 59-42 53-27h129V0H18c2-99 128-94 128-182 0-28-16-43-45-43s-46 15-49 41l-32-3c6-41 34-60 81-64" id="X"/><g id="k"><use transform="matrix(0.06172839506172839,0,0,0.06172839506172839,0,0)" xlink:href="#T"/><use transform="matrix(0.06172839506172839,0,0,0.06172839506172839,12.345679012345679,0)" xlink:href="#X"/></g><g id="l"><use transform="matrix(0.06172839506172839,0,0,0.06172839506172839,0,0)" xlink:href="#T"/><use transform="matrix(0.06172839506172839,0,0,0.06172839506172839,12.345679012345679,0)" xlink:href="#K"/></g><path fill="#d86613" d="M30 0v-248h187v28H63v79h144v27H63v87h162V0H30" id="Y"/><path fill="#d86613" d="M212-179c-10-28-35-45-73-45-59 0-87 40-87 99 0 60 29 101 89 101 43 0 62-24 78-52l27 14C228-24 195 4 139 4 59 4 22-46 18-125c-6-104 99-153 187-111 19 9 31 26 39 46" id="Z"/><path fill="#d86613" d="M185-189c-5-48-123-54-124 2 14 75 158 14 163 119 3 78-121 87-175 55-17-10-28-26-33-46l33-7c5 56 141 63 141-1 0-78-155-14-162-118-5-82 145-84 179-34 5 7 8 16 11 25" id="aa"/><g id="m"><use transform="matrix(0.05,0,0,0.05,0,0)" xlink:href="#Y"/><use transform="matrix(0.05,0,0,0.05,12,0)" xlink:href="#Z"/><use transform="matrix(0.05,0,0,0.05,24.950000000000003,0)" xlink:href="#aa"/></g><path fill="#d86613" d="M24 0v-261h32V0H24" id="ab"/><path fill="#d86613" d="M84 4C-5 8 30-112 23-190h32v120c0 31 7 50 39 49 72-2 45-101 50-169h31l1 190h-30c-1-10 1-25-2-33-11 22-28 36-60 37" id="ac"/><path fill="#d86613" d="M135-143c-3-34-86-38-87 0 15 53 115 12 119 90S17 21 10-45l28-5c4 36 97 45 98 0-10-56-113-15-118-90-4-57 82-63 122-42 12 7 21 19 24 35" id="ad"/><path fill="#d86613" d="M59-47c-2 24 18 29 38 22v24C64 9 27 4 27-40v-127H5v-23h24l9-43h21v43h35v23H59v120" id="ae"/><path fill="#d86613" d="M100-194c63 0 86 42 84 106H49c0 40 14 67 53 68 26 1 43-12 49-29l28 8c-11 28-37 45-77 45C44 4 14-33 15-96c1-61 26-98 85-98zm52 81c6-60-76-77-97-28-3 7-6 17-6 28h103" id="af"/><path fill="#d86613" d="M114-163C36-179 61-72 57 0H25l-1-190h30c1 12-1 29 2 39 6-27 23-49 58-41v29" id="ag"/><g id="n"><use transform="matrix(0.05,0,0,0.05,0,0)" xlink:href="#Z"/><use transform="matrix(0.05,0,0,0.05,12.950000000000001,0)" xlink:href="#ab"/><use transform="matrix(0.05,0,0,0.05,16.900000000000002,0)" xlink:href="#ac"/><use transform="matrix(0.05,0,0,0.05,26.900000000000002,0)" xlink:href="#ad"/><use transform="matrix(0.05,0,0,0.05,35.900000000000006,0)" xlink:href="#ae"/><use transform="matrix(0.05,0,0,0.05,40.900000000000006,0)" xlink:href="#af"/><use transform="matrix(0.05,0,0,0.05,50.900000000000006,0)" xlink:href="#ag"/></g><path fill="#333" d="M266 0h-40l-56-210L115 0H75L2-248h35L96-30l15-64 43-154h32l59 218 59-218h35" id="ah"/><g id="o"><use transform="matrix(0.06172839506172839,0,0,0.06172839506172839,0,0)" xlink:href="#w"/><use transform="matrix(0.06172839506172839,0,0,0.06172839506172839,14.012345679012345,0)" xlink:href="#ah"/><use transform="matrix(0.06172839506172839,0,0,0.06172839506172839,34.938271604938265,0)" xlink:href="#J"/></g><path fill="#333" d="M177-190C167-65 218 103 67 71c-23-6-38-20-44-43l32-5c15 47 100 32 89-28v-30C133-14 115 1 83 1 29 1 15-40 15-95c0-56 16-97 71-98 29-1 48 16 59 35 1-10 0-23 2-32h30zM94-22c36 0 50-32 50-73 0-42-14-75-50-75-39 0-46 34-46 75s6 73 46 73" id="ai"/><g id="p"><use transform="matrix(0.06172839506172839,0,0,0.06172839506172839,0,0)" xlink:href="#G"/><use transform="matrix(0.06172839506172839,0,0,0.06172839506172839,13.518518518518517,0)" xlink:href="#y"/><use transform="matrix(0.06172839506172839,0,0,0.06172839506172839,25.864197530864196,0)" xlink:href="#H"/><use transform="matrix(0.06172839506172839,0,0,0.06172839506172839,33.20987654320987,0)" xlink:href="#ai"/><use transform="matrix(0.06172839506172839,0,0,0.06172839506172839,45.55555555555555,0)" xlink:href="#y"/><use transform="matrix(0.06172839506172839,0,0,0.06172839506172839,57.90123456790123,0)" xlink:href="#I"/><use transform="matrix(0.06172839506172839,0,0,0.06172839506172839,64.07407407407406,0)" xlink:href="#S"/></g><path fill="#333" d="M137 0h-34L2-248h35l83 218 83-218h36" id="aj"/><path fill="#333" d="M30-248c87 1 191-15 191 75 0 78-77 80-158 76V0H30v-248zm33 125c57 0 124 11 124-50 0-59-68-47-124-48v98" id="ak"/><g id="q"><use transform="matrix(0.06172839506172839,0,0,0.06172839506172839,0,0)" xlink:href="#aj"/><use transform="matrix(0.06172839506172839,0,0,0.06172839506172839,14.814814814814813,0)" xlink:href="#ak"/><use transform="matrix(0.06172839506172839,0,0,0.06172839506172839,29.629629629629626,0)" xlink:href="#C"/></g><path fill="#333" d="M240 0l2-218c-23 76-54 145-80 218h-23L58-218 59 0H30v-248h44l77 211c21-75 51-140 76-211h43V0h-30" id="al"/><path fill="#333" d="M140-251c81 0 123 46 123 126C263-53 228-8 163 1c7 30 30 48 69 40v23c-55 16-95-15-103-61C56-3 17-48 17-125c0-80 42-126 123-126zm0 227c63 0 89-41 89-101s-29-99-89-99c-61 0-89 39-89 99S79-25 140-24" id="am"/><g id="r"><use transform="matrix(0.06172839506172839,0,0,0.06172839506172839,0,0)" xlink:href="#al"/><use transform="matrix(0.06172839506172839,0,0,0.06172839506172839,18.456790123456788,0)" xlink:href="#Q"/><use transform="matrix(0.06172839506172839,0,0,0.06172839506172839,29.5679012345679,0)" xlink:href="#J"/><use transform="matrix(0.06172839506172839,0,0,0.06172839506172839,44.38271604938271,0)" xlink:href="#am"/><use transform="matrix(0.06172839506172839,0,0,0.06172839506172839,61.66666666666666,0)" xlink:href="#L"/></g><path fill="#333" d="M30-248c118-7 216 8 213 122C240-48 200 0 122 0H30v-248zM63-27c89 8 146-16 146-99s-60-101-146-95v194" id="an"/><g id="s"><use transform="matrix(0.06172839506172839,0,0,0.06172839506172839,0,0)" xlink:href="#an"/><use transform="matrix(0.06172839506172839,0,0,0.06172839506172839,15.987654320987653,0)" xlink:href="#M"/></g><path fill="#333" d="M135-143c-3-34-86-38-87 0 15 53 115 12 119 90S17 21 10-45l28-5c4 36 97 45 98 0-10-56-113-15-118-90-4-57 82-63 122-42 12 7 21 19 24 35" id="ao"/><g id="t"><use transform="matrix(0.06172839506172839,0,0,0.06172839506172839,0,0)" xlink:href="#O"/><use transform="matrix(0.06172839506172839,0,0,0.06172839506172839,4.876543209876543,0)" xlink:href="#B"/><use transform="matrix(0.06172839506172839,0,0,0.06172839506172839,17.22222222222222,0)" xlink:href="#ao"/><use transform="matrix(0.06172839506172839,0,0,0.06172839506172839,28.333333333333332,0)" xlink:href="#I"/><use transform="matrix(0.06172839506172839,0,0,0.06172839506172839,34.50617283950617,0)" xlink:href="#y"/><use transform="matrix(0.06172839506172839,0,0,0.06172839506172839,46.85185185185185,0)" xlink:href="#B"/><use transform="matrix(0.06172839506172839,0,0,0.06172839506172839,59.197530864197525,0)" xlink:href="#W"/><use transform="matrix(0.06172839506172839,0,0,0.06172839506172839,70.30864197530863,0)" xlink:href="#S"/></g><path fill="#333" d="M233-177c-1 41-23 64-60 70L243 0h-38l-65-103H63V0H30v-248c88 3 205-21 203 71zM63-129c60-2 137 13 137-47 0-61-80-42-137-45v92" id="ap"/><g id="u"><use transform="matrix(0.06172839506172839,0,0,0.06172839506172839,0,0)" xlink:href="#V"/><use transform="matrix(0.06172839506172839,0,0,0.06172839506172839,14.814814814814813,0)" xlink:href="#C"/><use transform="matrix(0.06172839506172839,0,0,0.06172839506172839,30.80246913580247,0)" xlink:href="#ap"/></g><g id="v"><use transform="matrix(0.06172839506172839,0,0,0.06172839506172839,0,0)" xlink:href="#H"/><use transform="matrix(0.06172839506172839,0,0,0.06172839506172839,7.345679012345679,0)" xlink:href="#S"/><use transform="matrix(0.06172839506172839,0,0,0.06172839506172839,19.691358024691358,0)" xlink:href="#ai"/><use transform="matrix(0.06172839506172839,0,0,0.06172839506172839,32.03703703703704,0)" xlink:href="#O"/><use transform="matrix(0.06172839506172839,0,0,0.06172839506172839,36.91358024691358,0)" xlink:href="#ao"/><use transform="matrix(0.06172839506172839,0,0,0.06172839506172839,48.0246913580247,0)" xlink:href="#I"/><use transform="matrix(0.06172839506172839,0,0,0.06172839506172839,54.19753086419754,0)" xlink:href="#H"/><use transform="matrix(0.06172839506172839,0,0,0.06172839506172839,61.543209876543216,0)" xlink:href="#Q"/></g></defs></g></svg>